<?xml version="1.0"?>
<svg width="150" height="150" xmlns="http://www.w3.org/2000/svg" xmlns:svg="http://www.w3.org/2000/svg" enable-background="new 0 0 1580 1396.3" version="1.1" xml:space="preserve" fill='#f64445'>
    <g id="svg_1">
     <path d="m149.61,125.04c0.1,0.06 0.1,0.15 0.07,0.24c-0.07,0.09 -0.17,0.13 -0.27,0.09c-0.81,-0.24 -1.66,-0.43 -2.49,-0.54c-0.91,-0.13 -1.85,-0.15 -2.8,-0.03c-0.81,0.13 -1.62,0.33 -2.09,0.97c-0.3,0.4 -0.51,0.97 -0.88,1.05c-0.27,0.06 -0.61,-0.09 -0.94,-0.18c-0.51,-0.09 -1.01,-0.06 -1.42,0.06c-0.67,0.13 -1.18,0.33 -1.99,0.81c-0.98,0.54 -2.36,1.45 -2.26,1.05c0.03,-0.15 0.34,-0.54 0.54,-0.81c0.13,-0.18 0.21,-0.33 0.3,-0.48c0.24,-0.4 0.54,-0.84 0.54,-1.32c-0.03,-0.36 -0.24,-0.75 -0.51,-1.02c-0.34,-0.33 -0.74,-0.51 -1.45,-0.48c-0.51,0 -1.15,0.09 -1.15,-0.06c0,-0.09 0.27,-0.27 0.51,-0.43c0.03,0 0.03,-0.03 0.07,-0.03c0.21,-0.13 0.34,-0.24 0.43,-0.4c0.17,-0.27 0.27,-0.67 0.17,-0.94c-0.13,-0.4 -0.67,-0.54 -1.18,-0.6c-0.78,-0.09 -1.48,0.03 -2.4,0.36c-0.81,0.3 -1.76,0.72 -1.79,0.54c-0.03,-0.15 0.54,-0.72 1.08,-1.18c0.85,-0.72 1.52,-1.11 2.19,-1.42c0.64,-0.3 1.28,-0.48 2.06,-0.54c0.7,-0.06 1.48,0 2.16,0.33c0.54,0.24 1.01,0.64 1.18,1.08c0.1,0.3 0.07,0.6 0,0.97c-0.1,0.4 -0.24,0.81 0.13,1.05c0.21,0.13 0.51,0.18 0.61,0.13c0.1,-0.09 -0.07,-0.36 0,-0.6c0.03,-0.18 0.24,-0.33 0.37,-0.33c0.13,0.03 0.21,0.18 0.21,0.36c0,0.18 -0.1,0.36 0.03,0.45c0.07,0.06 0.21,0.09 0.3,0.06c0.13,-0.03 0.21,-0.13 0.3,-0.24c0.13,-0.18 0.3,-0.43 0.4,-0.4c0.1,0 0.13,0.33 0.07,0.64c-0.07,0.27 -0.17,0.51 0,0.6c0.07,0.03 0.17,0.03 0.27,0c0.27,-0.09 0.27,-0.45 0.37,-0.72c0.1,-0.24 0.3,-0.4 0.51,-0.54c0.4,-0.33 0.67,-0.67 0.94,-1.18c0.13,-0.24 0.24,-0.51 0.4,-0.57c0.24,-0.06 0.54,0.24 0.81,0.48c0.48,0.4 0.91,0.57 1.39,0.75c0.7,0.27 1.48,0.57 2.19,0.94c0.85,0.43 1.58,0.94 2.33,1.48c0.17,0.15 0.43,0.36 0.67,0.54l0,-0.01z" id="svg_2"/>
     <path d="m143.16,118.44c0.03,0.06 0.03,0.13 -0.03,0.18c-0.07,0.06 -0.13,0.06 -0.21,0.03c-0.74,-0.36 -1.45,-0.72 -2.19,-1.08c-1.76,-0.88 -3.51,-1.72 -5.3,-2.47c-1.62,-0.7 -3.24,-1.29 -5.06,-1.54c-0.85,-0.13 -1.72,-0.15 -2.4,0.18c-0.51,0.24 -0.94,0.72 -1.58,0.67c-0.3,-0.03 -0.64,-0.15 -0.78,-0.13c-0.37,0.03 0.4,0.91 1.04,1.45c0.37,0.33 0.7,0.54 0.7,0.81c0,0.18 -0.17,0.4 -0.37,0.64c-0.4,0.48 -0.94,0.97 -0.81,1.39c0.1,0.27 0.43,0.48 0.67,0.78c0.43,0.54 0.43,1.29 0.51,1.86c0.13,0.94 0.57,1.45 1.15,2.9c0.27,0.7 0.61,1.56 0.34,1.45c-0.1,-0.06 -0.34,-0.33 -0.57,-0.4c-0.21,-0.06 -0.43,0.06 -0.64,0.13c-0.61,0.13 -1.12,-0.43 -1.62,-0.88c-0.88,-0.84 -1.66,-1.45 -2.33,-2.26c-0.57,-0.7 -1.08,-1.51 -1.39,-2.29c-0.34,-0.88 -0.43,-1.69 -0.4,-2.87c0,-0.36 0.03,-0.78 -0.3,-0.88c-0.1,-0.03 -0.27,-0.03 -0.37,0c-0.21,0.09 -0.1,0.45 -0.03,0.75c0.21,0.81 0.03,1.39 -0.03,2.02c-0.1,0.78 -0.1,1.66 0.4,2.5c0.13,0.24 0.3,0.48 0.27,0.67c-0.07,0.21 -0.4,0.36 -0.64,0.54c-0.34,0.27 -0.4,0.67 -0.48,1.05c-0.1,0.78 -0.07,1.51 -0.13,2.29c-0.07,0.57 -0.21,1.21 -0.07,1.69c0.1,0.27 0.27,0.54 0.34,0.91c0.1,0.48 0,1.18 -0.13,1.21c-0.17,0.03 -0.4,-0.7 -0.78,-1.05c-0.27,-0.27 -0.64,-0.33 -1.01,-0.36c-0.64,-0.06 -1.34,-0.09 -1.82,-0.43c-0.54,-0.4 -0.78,-1.27 -1.28,-1.59c-0.43,-0.3 -1.15,-0.21 -1.85,-0.3c-0.98,-0.15 -2.03,-0.64 -2.53,-0.36c-0.3,0.18 -0.4,0.64 -0.7,1.18c-0.27,0.45 -0.67,0.97 -0.74,0.84c-0.03,-0.09 0.03,-0.36 0.07,-0.6c0.07,-0.33 0.13,-0.57 0.17,-0.84c0.03,-0.36 0.03,-0.75 -0.1,-1.11c-0.21,-0.6 -0.7,-1.11 -1.28,-1.51c-0.78,-0.51 -1.72,-0.78 -2.6,-0.99c-1.12,-0.27 -2.16,-0.4 -3.51,-0.6c-0.57,-0.09 -1.18,-0.21 -1.48,-0.03c-0.51,0.27 -0.17,1.35 -0.07,2.2c0.13,0.94 0,1.63 0.13,2.39c0.13,0.78 0.51,1.66 1.34,2.2c0.51,0.33 1.18,0.54 1.28,1.02c0.03,0.18 0,0.36 -0.07,0.57c-0.21,0.6 -0.57,1.02 -0.88,1.56c-0.34,0.54 -0.57,1.21 -0.43,1.75c0.1,0.43 0.43,0.78 0.54,1.39c0.07,0.48 0,1.11 -0.21,1.24c-0.3,0.21 -0.88,-0.78 -1.45,-1.45c-0.57,-0.67 -1.12,-0.94 -1.79,-1.15c-0.7,-0.21 -1.52,-0.3 -2.3,-0.33c-1.01,-0.03 -1.96,0.03 -3.07,0.24c-0.34,0.06 -0.67,0.13 -0.98,0.24c-0.34,0.13 -0.64,0.3 -0.78,0.13c-0.1,-0.13 -0.13,-0.43 -0.24,-0.67c-0.24,-0.6 -0.91,-0.78 -1.55,-0.94c-1.18,-0.27 -2.16,-0.43 -3.21,-0.43c-0.88,0 -1.82,0.09 -3.24,0.3c-1.39,0.24 -3.24,0.6 -3.1,0.36c0.07,-0.13 0.67,-0.4 1.21,-0.64c1.08,-0.45 1.92,-0.72 2.83,-1.08c0.91,-0.33 1.85,-0.75 2.8,-0.99c1.21,-0.33 2.46,-0.43 3.98,-0.03c0.54,0.15 1.12,0.36 1.25,0.06c0.13,-0.27 -0.07,-0.94 0,-1.18c0.13,-0.43 1.18,0.6 1.92,1.21c0.74,0.64 1.18,0.84 1.96,1.15c0.81,0.33 2.03,0.75 2.22,0.3c0.1,-0.18 0,-0.51 -0.1,-0.78c-0.34,-0.7 -1.08,-1.05 -1.58,-1.59c-0.4,-0.43 -0.67,-0.97 -0.64,-1.63c0,-0.43 0.13,-0.91 -0.13,-1.05c-0.21,-0.13 -0.61,-0.06 -0.85,-0.15c-0.34,-0.13 -0.48,-0.48 -0.64,-0.81c-0.27,-0.51 -0.74,-0.99 -1.18,-1.02c-0.3,-0.03 -0.61,0.15 -1.01,0.33c-0.57,0.24 -1.39,0.4 -1.52,0.27c-0.13,-0.13 0.67,-0.7 1.31,-1.18c0.51,-0.36 0.88,-0.7 0.85,-1.02c-0.03,-0.33 -0.57,-0.7 -1.01,-0.99c-0.64,-0.45 -1.12,-0.88 -1.62,-1.24c-0.54,-0.4 -1.12,-0.78 -1.82,-1.08c-0.48,-0.21 -0.98,-0.36 -1.45,-0.48c-0.51,-0.13 -0.98,-0.21 -1.55,-0.18c-0.37,0 -0.81,0.06 -1.18,0.18c-0.37,0.13 -0.67,0.27 -0.88,0.13c-0.07,-0.06 -0.13,-0.15 -0.27,-0.21c-0.27,-0.15 -0.88,-0.13 -0.98,0.06c-0.1,0.13 0.03,0.33 0.07,0.57c0.03,0.18 0.03,0.4 -0.1,0.43c-0.13,0.06 -0.51,-0.09 -0.64,-0.09c-0.24,0 0.07,0.48 0.37,0.88c0.27,0.36 0.57,0.7 0.43,0.78c-0.13,0.13 -0.64,0 -0.98,0.15c-0.24,0.09 -0.37,0.3 -0.43,0.54c-0.1,0.43 0.03,0.84 0.24,1.21c0.24,0.43 0.51,0.72 0.91,1.29c0.37,0.51 0.91,1.27 0.64,1.27c-0.1,0 -0.34,-0.15 -0.57,-0.27c-0.67,-0.4 -1.12,-0.7 -1.58,-1.05c-0.48,-0.33 -0.98,-0.72 -1.28,-1.21c-0.21,-0.33 -0.34,-0.7 -0.57,-0.97c-0.51,-0.57 -1.42,-0.67 -2.22,-0.72c-1.12,-0.09 -2.06,-0.09 -3.13,0.13c-1.01,0.21 -2.19,0.6 -3.24,1.11c-0.78,0.4 -1.52,0.84 -1.85,1.45c-0.1,0.21 -0.17,0.43 -0.17,0.72c0,0.54 0.27,1.35 0.03,1.39c-0.13,0.03 -0.51,-0.27 -0.78,-0.6c-0.27,-0.3 -0.43,-0.64 -0.64,-0.6c-0.24,0.03 -0.51,0.67 -0.81,0.72c-0.21,0.03 -0.4,-0.13 -0.57,-0.27c-0.4,-0.33 -0.67,-0.67 -1.01,-0.64c-0.48,0.06 -1.08,0.88 -1.66,0.97c-0.07,0 -0.1,0 -0.13,0c-0.21,0 -0.4,-0.06 -0.64,-0.06c-0.7,-0.03 -1.79,0.3 -1.66,0.81c0.07,0.15 0.24,0.36 0.27,0.54c0.03,0.15 -0.07,0.27 -0.13,0.4c-0.27,0.48 -0.51,0.81 -1.01,1.42c-0.43,0.54 -1.01,1.29 -1.15,1.15c-0.1,-0.13 0.07,-0.78 0.13,-1.29c0.03,-0.54 -0.07,-0.88 -0.17,-1.24c-0.17,-0.7 -0.27,-1.51 -0.94,-2.14c-0.27,-0.27 -0.67,-0.51 -0.7,-0.75c-0.03,-0.3 0.51,-0.64 0.74,-0.99c0.34,-0.51 0.24,-1.11 0.13,-1.63c-0.17,-0.72 -0.4,-1.21 -0.81,-1.75c-0.51,-0.64 -1.25,-1.29 -1.96,-1.86c-0.61,-0.48 -1.15,-0.91 -1.79,-1.27c-0.3,-0.18 -0.67,-0.36 -1.08,-0.4c-0.48,-0.06 -1.04,0.06 -1.55,0.15c-1.08,0.21 -1.92,0.4 -2.8,0.64c-1.08,0.3 -2.16,0.67 -3.1,1.32c-0.74,0.51 -1.39,1.18 -1.72,1.86c-0.34,0.67 -0.37,1.29 -0.13,2.32c0.07,0.36 0.21,0.75 -0.07,0.81c-0.1,0.03 -0.27,-0.03 -0.37,-0.09c-0.24,-0.15 -0.17,-0.45 -0.21,-0.72c-0.07,-0.48 -0.37,-0.84 -0.64,-1.21c-0.48,-0.6 -0.85,-1.18 -1.62,-1.66c-0.43,-0.24 -1.01,-0.45 -1.01,-0.78c0,-0.21 0.21,-0.45 0.34,-0.7c0.21,-0.36 0.27,-0.72 0.17,-1.05c-0.13,-0.36 -0.43,-0.67 -0.85,-0.88c-0.74,-0.4 -1.69,-0.4 -2.43,-0.06c-0.43,0.21 -0.81,0.57 -1.01,0.99c-0.24,0.45 -0.34,0.94 -0.24,1.45c0.07,0.3 0.17,0.64 0,0.91c-0.13,0.18 -0.37,0.36 -0.37,0.51c0,0.13 0.17,0.24 0.27,0.36c0.17,0.21 0.21,0.48 0.07,0.64c-0.1,0.09 -0.3,0.15 -0.48,0.15c-0.64,0.06 -1.21,-0.06 -1.72,0.09c-0.61,0.18 -1.15,0.75 -1.45,1.32c-0.24,0.43 -0.34,0.81 -0.27,1.39c0.03,0.4 0.17,0.88 -0.13,0.99c-0.1,0.03 -0.27,0.03 -0.37,0c-0.27,-0.09 -0.24,-0.48 -0.27,-0.78c-0.03,-0.43 -0.21,-0.78 -0.21,-1.11c0.03,-0.48 0.43,-0.97 0.51,-1.48c0.07,-0.48 -0.21,-1.02 -0.51,-1.39c-0.37,-0.43 -0.81,-0.67 -1.21,-1.35c-0.27,-0.45 -0.48,-1.11 -0.64,-0.97c-0.07,0.06 -0.1,0.27 -0.17,0.45c-0.07,0.33 -0.1,0.54 -0.03,0.88c0.07,0.4 0.3,0.97 0.1,1.02c-0.21,0.06 -0.78,-0.33 -1.01,-0.24c-0.21,0.06 -0.13,0.54 -0.07,0.88c0.1,0.36 0.17,0.57 0.34,0.91c0.34,0.67 0.94,1.75 0.74,1.9c-0.21,0.15 -1.12,-0.48 -1.82,-0.94c-0.85,-0.54 -1.31,-0.78 -1.85,-1.51c-0.21,-0.27 -0.4,-0.6 -0.64,-0.57c-0.21,0 -0.48,0.27 -0.67,0.3c-0.3,0.03 -0.48,-0.43 -0.81,-0.88c-0.37,-0.48 -0.91,-0.94 -1.08,-0.84c-0.17,0.13 0.24,0.99 0.1,1.27c-0.17,0.33 -1.15,-0.21 -1.82,-0.67c-0.81,-0.51 -1.25,-0.91 -1.66,-1.42c-0.4,-0.48 -0.81,-1.11 -1.15,-1.72c-0.78,-1.29 -1.31,-2.35 -2.26,-3.95c-0.24,-0.43 -0.51,-0.84 -0.78,-0.91c-0.37,-0.06 -0.78,0.6 -1.21,1.05c-0.37,0.33 -0.74,0.54 -0.88,0.81c-0.1,0.18 -0.03,0.43 -0.1,0.7c-0.1,0.4 -0.43,0.88 -0.74,0.97c-0.43,0.13 -0.7,-0.84 -0.81,-1.63c-0.07,-0.45 -0.07,-0.84 -0.27,-1.11c-0.1,-0.13 -0.3,-0.21 -0.48,-0.24c-0.27,-0.06 -0.51,0.06 -0.88,0.15c-0.61,0.15 -1.48,0.21 -1.62,-0.09c-0.07,-0.21 0.27,-0.64 0.3,-1.02c0.03,-0.33 -0.17,-0.67 -0.43,-0.84c-0.54,-0.4 -1.42,-0.18 -2.16,0.09c-1.04,0.4 -1.82,0.94 -2.53,1.59c-0.43,0.4 -0.85,0.81 -1.25,1.27c-0.07,0.06 -0.13,0.06 -0.21,0.03c-0.07,-0.03 -0.1,-0.13 -0.07,-0.18c0.27,-0.54 0.54,-0.88 0.78,-1.24c0.48,-0.7 0.91,-1.42 1.39,-2.14c0.37,-0.57 0.78,-1.15 1.25,-1.66c0.13,-0.15 0.3,-0.33 0.37,-0.51c0.21,-0.4 0.13,-0.88 0.1,-1.32c-0.07,-0.94 0.03,-1.78 0.17,-2.69c0.1,-0.64 0.27,-1.32 0.74,-1.81c0.4,-0.43 1.08,-0.72 1.34,-1.18c0.27,-0.43 0.21,-0.97 0.27,-1.51c0.03,-0.33 0.13,-0.64 0.37,-0.84c0.13,-0.13 0.3,-0.21 0.37,-0.3c0.21,-0.27 -0.27,-0.67 -0.64,-1.02c-0.51,-0.54 -0.81,-1.05 -0.7,-1.56c0.07,-0.43 0.43,-0.88 0.64,-1.32c0.4,-0.97 -0.03,-2.05 -0.27,-3.07c-0.21,-0.94 -0.27,-1.84 -0.64,-2.77c-0.13,-0.3 -0.3,-0.64 -0.27,-0.91c0.03,-0.48 0.61,-0.91 1.01,-1.35c0.21,-0.21 0.37,-0.45 0.43,-0.7c0.17,-0.57 -0.27,-1.24 -0.64,-1.81c-0.24,-0.4 -0.48,-0.72 -0.51,-1.11c-0.03,-0.43 0.17,-0.88 0.57,-1.18c0.3,-0.24 0.78,-0.4 0.91,-0.64c0.17,-0.27 -0.03,-0.7 -0.13,-1.15c-0.13,-0.6 -0.13,-1.29 0.37,-1.51c0.17,-0.06 0.37,-0.09 0.51,-0.15c0.24,-0.13 0.37,-0.45 0.37,-0.72c0.03,-0.45 -0.24,-0.81 -0.48,-1.24c-0.21,-0.3 -0.37,-0.67 -0.37,-0.97c0,-0.57 0.61,-1.05 1.15,-1.51c0.64,-0.57 1.18,-1.08 1.66,-1.63c1.08,-1.27 1.96,-2.8 3.21,-4.22c1.45,-1.63 3.4,-3.1 5.33,-3.95c1.39,-0.6 2.76,-0.91 4.22,-1.15c1.42,-0.24 2.94,-0.4 4.39,-0.84c1.31,-0.43 2.53,-1.05 3.67,-1.81c1.66,-1.15 3.1,-2.53 4.76,-3.58c1.79,-1.15 3.85,-1.93 5.97,-2.59c1.99,-0.64 3.98,-1.18 5.91,-1.9c1.12,-0.43 2.22,-0.91 3.18,-1.59c0.7,-0.51 1.39,-1.15 1.72,-1.86c0.4,-0.91 0.34,-1.96 0.37,-2.98c0.07,-1.56 0.43,-3.07 0.43,-4.58c0,-1.32 -0.24,-2.69 -0.37,-4.04c-0.07,-0.54 -0.1,-1.11 -0.21,-1.66l0.88,-0.13c0,0.06 0.03,0.15 0.03,0.21c0.17,1.02 0.4,2.02 0.7,2.98c0.24,0.78 0.54,1.56 0.88,2.32c0.43,1.02 0.94,2.05 1.39,3.07c0.37,0.88 0.7,1.78 1.18,2.59c0.43,0.75 0.98,1.45 1.48,2.14c-0.3,-0.7 -0.61,-1.42 -0.85,-2.14c-0.24,-0.67 -0.48,-1.32 -0.61,-2.02c-0.17,-0.91 -0.21,-1.84 -0.51,-2.71c-0.21,-0.57 -0.54,-1.15 -0.81,-1.72c-0.34,-0.78 -0.57,-1.59 -0.88,-2.39c-0.17,-0.4 -0.34,-0.81 -0.37,-1.24c0,-0.13 0,-0.27 -0.03,-0.4l0.54,-0.06c0.07,0.33 0.27,0.88 0.48,1.32c0.67,1.54 1.12,2.2 1.52,3.23c0.13,0.3 0.24,0.67 0.34,1.02c0.27,1.02 0.3,2.08 0.51,3.1c0.03,0.15 0.07,0.33 0.1,0.48c0.24,0.97 0.61,1.86 1.04,2.8c0.34,0.7 0.67,1.42 1.31,1.9c0.34,0.24 0.74,0.45 1.12,0.67c0.64,0.4 1.15,0.94 1.76,1.42c0.67,0.57 1.45,1.11 2.26,1.35c1.21,0.4 2.6,0.18 3.98,0.3c0.88,0.06 1.76,0.24 2.49,0c0.34,-0.13 0.67,-0.3 1.12,-0.33c0.24,0 0.51,0.06 0.61,-0.09c0.07,-0.09 0.07,-0.24 0,-0.36c-0.13,-0.27 -0.57,-0.24 -0.98,-0.21c-0.94,0.06 -1.66,0.03 -2.43,0c-0.88,-0.03 -1.82,-0.03 -2.7,0.09c-0.51,0.06 -0.98,0.15 -1.52,0.18c-0.24,0 -0.51,0 -0.67,-0.18c-0.1,-0.13 -0.21,-0.27 -0.17,-0.36c0.07,-0.18 0.51,-0.09 0.88,-0.09c0.37,0 0.61,-0.13 0.91,-0.18c0.61,-0.13 1.31,0.03 2.03,-0.03c0.24,-0.03 0.48,-0.06 0.67,-0.15c0.61,-0.27 0.98,-0.84 1.52,-1.24c0.34,-0.24 0.7,-0.4 1.01,-0.67c0.27,-0.27 0.51,-0.64 0.43,-0.99c-0.03,-0.43 -0.4,-0.81 -0.81,-1.02c-0.74,-0.43 -1.69,-0.27 -2.6,-0.24c-0.54,0 -1.08,-0.03 -1.52,0.15c-0.4,0.18 -0.74,0.57 -1.08,0.91c-0.13,0.13 -0.27,0.21 -0.4,0.3c-0.4,0.21 -0.98,0.3 -1.39,0.03c-0.13,-0.09 -0.24,-0.21 -0.27,-0.33c-0.1,-0.33 0.37,-0.67 0.74,-0.99c0.4,-0.36 0.64,-0.7 1.01,-0.91c0.43,-0.24 1.08,-0.3 1.66,-0.3c0.54,0 1.01,0 1.52,0.06c0.51,0.09 1.08,0.21 1.52,0c0.21,-0.09 0.4,-0.27 0.61,-0.33c0.24,-0.06 0.51,0.06 0.78,-0.03c0.34,-0.13 0.64,-0.51 0.61,-0.7c-0.07,-0.21 -0.78,0 -1.31,0c-0.48,0 -0.78,-0.21 -1.12,-0.15c-0.3,0.06 -0.61,0.33 -0.94,0.4c-0.4,0.09 -0.81,-0.13 -1.21,-0.21c-0.61,-0.15 -1.18,-0.06 -1.82,-0.09c-0.34,0 -0.67,-0.06 -1.01,0c-0.21,0.03 -0.4,0.13 -0.57,0.21c-0.51,0.24 -1.01,0.6 -1.55,0.36c-0.13,-0.06 -0.27,-0.18 -0.37,-0.15c-0.13,0.03 -0.17,0.27 -0.3,0.43c-0.21,0.18 -0.61,0.18 -0.7,0.09c-0.13,-0.15 0.13,-0.45 0.34,-0.72c0.34,-0.43 0.48,-0.64 1.04,-0.88c0.27,-0.13 0.67,-0.24 0.67,-0.13c0,0.13 -0.37,0.43 -0.27,0.54c0.03,0.03 0.13,0.06 0.24,0.06c0.54,0.03 0.88,-0.21 1.28,-0.4c0.51,-0.21 1.12,-0.33 1.66,-0.24c0.37,0.09 0.7,0.27 1.12,0.4c0.37,0.13 0.78,0.18 1.12,0.06c0.4,-0.13 0.74,-0.45 1.12,-0.51c0.37,-0.06 0.78,0.13 1.15,0.21c0.54,0.13 1.04,0.09 1.58,0.15c0.24,0.03 0.43,0.09 0.67,0c0.13,-0.06 0.3,-0.21 0.4,-0.15c0.07,0.03 0.1,0.09 0.17,0.15c0.21,0.15 0.51,0.18 0.67,0.06c0.17,-0.15 0.13,-0.48 0.03,-0.7c-0.1,-0.18 -0.3,-0.27 -0.51,-0.4c-0.07,-0.03 -0.17,-0.09 -0.24,-0.13c-0.17,0 -0.24,0.27 -0.4,0.45c-0.24,0.24 -0.61,0.27 -0.88,0.13c-0.13,-0.06 -0.24,-0.18 -0.34,-0.24c-0.21,-0.09 -0.48,0 -0.74,0.06c-0.34,0.09 -0.7,0.21 -0.91,0.09c-0.17,-0.09 -0.24,-0.36 -0.27,-0.64c-0.03,-0.3 -0.03,-0.64 -0.21,-0.75c-0.21,-0.13 -0.7,0.09 -0.94,0.36c-0.21,0.24 -0.17,0.51 -0.27,0.78c-0.07,0.18 -0.21,0.33 -0.37,0.48c-0.1,0.09 -0.27,0.15 -0.34,0.15c-0.21,-0.03 -0.24,-0.4 -0.13,-0.67c0.13,-0.3 0.43,-0.51 0.43,-0.67c0,-0.21 -0.51,-0.4 -0.88,-0.57c-0.85,-0.4 -1.28,-0.78 -1.82,-1.24l0.81,-0.15c0.17,0.13 0.34,0.24 0.51,0.33c0.24,0.15 0.51,0.33 0.74,0.48c0.03,0.03 0.1,0.06 0.13,0.09c0.1,0.06 0.24,0.09 0.37,0.03c0.1,-0.06 0.21,-0.15 0.17,-0.27c0,-0.27 -0.03,-0.51 -0.03,-0.78c-0.03,-0.91 -0.07,-1.81 -0.17,-2.71c-0.13,-1.05 -0.4,-2.11 -0.34,-3.17c0.03,-0.27 0.07,-0.54 0.1,-0.81c0,-0.06 0.03,-0.09 0.1,-0.13c0.07,-0.03 0.1,0 0.17,0c0.1,0.06 0.24,0.09 0.3,0.06c0.1,-0.03 0.21,-0.15 0.3,-0.27c0.13,-0.15 0.27,-0.3 0.17,-0.45c-0.07,-0.09 -0.27,-0.15 -0.4,-0.24c-0.17,-0.15 -0.13,-0.4 -0.1,-0.6c0,-0.15 0,-0.27 -0.03,-0.43l0.54,-0.06c0.03,0.18 0.1,0.33 0.21,0.54c0.17,0.33 0.4,0.67 0.67,0.64c0.13,-0.03 0.24,-0.13 0.37,-0.24c0.27,-0.24 0.48,-0.45 0.7,-0.64c0.54,-0.43 1.31,-0.78 1.99,-0.99c0.64,-0.21 1.21,-0.3 2.19,-0.4c0.57,-0.06 1.28,-0.13 1.21,-0.45c-0.03,-0.06 -0.07,-0.15 -0.13,-0.21c-0.17,-0.15 -0.43,-0.15 -0.7,-0.13c-0.81,0.03 -1.52,0 -2.22,0.15c-0.74,0.18 -1.45,0.57 -2.22,0.72c-0.21,0.03 -0.37,0.06 -0.57,0.06c-0.07,0 -0.13,-0.03 -0.17,-0.13c-0.03,-0.06 0,-0.15 0.07,-0.18c0.51,-0.24 1.01,-0.51 1.52,-0.78c0.67,-0.36 1.31,-0.72 2.16,-0.84c0.81,-0.09 1.82,0.06 2.3,-0.4c0.34,-0.3 0.34,-0.94 0.27,-1.51c-0.13,-1.05 -0.54,-1.93 -0.98,-2.77c-0.57,-1.08 -1.15,-2.14 -1.89,-3.17c-0.61,-0.88 -1.31,-1.75 -2.16,-2.42c-0.88,-0.7 -1.89,-1.15 -2.97,-1.32c-0.81,-0.15 -1.69,-0.13 -2.57,0.03c-1.01,0.18 -2.06,0.57 -2.97,1.05c-0.54,0.3 -1.04,0.64 -1.45,1.05c-0.24,0.24 -0.48,0.51 -0.67,0.78c-0.07,0.09 -0.21,0.15 -0.34,0.09c-0.13,-0.03 -0.21,-0.15 -0.17,-0.27c0.03,-0.18 0.07,-0.36 0.13,-0.54c0.4,-1.21 1.69,-2.14 3.03,-2.83c1.34,-0.7 2.7,-1.11 4.15,-1.32c1.79,-0.3 3.67,-0.27 5.53,-0.06c1.08,0.13 2.12,0.33 3.1,0.7c0.54,0.18 1.04,0.45 1.55,0.75c0.13,0.09 0.27,0.18 0.43,0.18c0.1,0 0.24,-0.06 0.3,-0.13c0.27,-0.21 0.17,-0.64 0.03,-0.99c-0.21,-0.54 -0.4,-0.97 -0.74,-1.35c-0.57,-0.7 -1.42,-1.27 -2.3,-1.69c-0.94,-0.45 -1.92,-0.7 -2.94,-0.88c-1.58,-0.3 -3.27,-0.45 -4.89,-0.33c-1.48,0.13 -2.94,0.48 -4.25,1.02c-0.91,0.36 -1.72,0.81 -2.49,1.45c-1.04,0.84 -2.03,2.05 -2.43,3.31c-0.07,0.24 -0.13,0.48 -0.17,0.75c-0.07,0.43 -0.13,0.88 -0.34,0.99c-0.34,0.21 -1.08,-0.67 -1.66,-1.42c-1.48,-2.02 -1.69,-3.26 -1.96,-4.79c-0.27,-1.51 -0.57,-3.28 -0.7,-4.97c-0.1,-1.29 -0.13,-2.53 0,-3.8c0.07,-0.6 0.17,-1.21 0.27,-1.84c-0.24,0.43 -0.51,0.84 -0.7,1.27c-0.3,0.64 -0.54,1.29 -0.67,1.99l-0.78,-0.15c0.07,-0.3 0.13,-0.6 0.21,-0.91c0.34,-1.27 0.7,-2.5 1.34,-3.68c0.24,-0.43 0.48,-0.84 0.81,-1.21c0.1,-0.13 0.27,-0.15 0.4,-0.13c0.17,0.03 0.27,0.15 0.27,0.3c0,0 0,0.03 0,0.03c0.13,1.08 0.03,2.17 0.03,3.26c0.03,1.59 0.34,3.17 0.64,4.73c0.07,0.43 0.17,0.84 0.21,1.29c0.03,0.48 0,0.94 0,1.42c0.03,1.02 0.27,2.05 0.54,3.04c0.03,0.09 0.1,0.15 0.17,0.18c0.1,0.03 0.21,0 0.27,-0.06c0.61,-0.48 1.21,-0.97 1.89,-1.42c1.72,-1.15 3.75,-1.93 5.87,-2.39c2.46,-0.54 5.09,-0.6 7.52,-0.06c1.18,0.27 2.3,0.67 3.37,1.15c0.94,0.43 1.85,0.91 2.7,1.45c0.37,0.24 0.7,0.48 1.04,0.72c0.1,0.06 0.21,0.06 0.3,0.03c0.1,-0.03 0.17,-0.13 0.13,-0.24c-0.03,-0.7 -0.07,-1.35 -0.03,-2.02c0.07,-0.72 0.17,-1.42 0.27,-2.11c0.1,-0.7 0.17,-1.42 0.24,-2.14c0.1,-1.24 0.21,-2.47 0.27,-3.71c0.07,-1.32 0.07,-2.66 0.1,-4.01c0,-0.09 0.07,-0.15 0.13,-0.15c0.1,-0.03 0.17,0 0.21,0.09c0.24,0.4 0.51,0.81 0.7,1.24c0.7,1.32 1.18,2.74 1.55,4.19c0.54,2.14 0.81,4.31 0.94,6.48c0.13,1.99 0.13,4.01 0.27,6c0.24,3.92 0.94,7.83 0.51,11.73c-0.21,1.96 -0.7,3.92 -0.94,5.88c-0.24,2.14 -0.17,4.28 -0.51,6.42c-0.21,1.32 -0.57,2.66 -0.81,3.98c-0.17,0.84 -0.27,1.72 -0.24,2.59c0.03,0.75 0.1,1.51 0.48,2.14c0.57,0.97 1.76,1.59 2.9,2.2c1.58,0.81 3.03,1.56 4.62,2.17c1.28,0.48 2.63,0.84 3.95,1.32c1.18,0.43 2.3,0.91 3.07,1.86c0.21,0.27 0.4,0.57 0.67,0.7c0.27,0.09 0.61,0.06 0.91,0.13c0.34,0.06 0.61,0.24 0.91,0.4c0.81,0.48 1.58,0.99 2.3,1.56c0.64,0.51 1.25,1.05 1.96,1.48c1.21,0.72 2.67,1.02 4.05,1.45c2.22,0.67 4.28,1.63 6.41,2.53c1.52,0.67 3.1,1.27 4.45,2.17c1.18,0.78 2.16,1.75 3.27,2.66c0.67,0.57 1.42,1.11 1.52,1.93c0.07,0.45 -0.03,0.97 0.21,1.27c0.24,0.3 0.81,0.36 1.34,0.54c0.64,0.21 1.18,0.64 1.28,1.15c0.1,0.57 -0.34,1.27 -0.24,1.81c0.1,0.54 0.64,0.97 1.12,1.42c0.24,0.24 0.4,0.45 0.51,0.72c0.24,0.67 -0.24,1.48 -0.24,2.23c0,0.24 0.03,0.45 -0.07,0.7c-0.07,0.15 -0.21,0.27 -0.24,0.4c-0.1,0.33 0.48,0.6 0.78,0.94c0.34,0.4 0.34,0.84 0.07,1.29c-0.24,0.45 -0.7,0.84 -0.61,1.15c0.1,0.27 0.78,0.45 1.08,0.75c0.27,0.27 0.27,0.7 0.34,1.08c0.1,0.7 0.37,1.29 0.48,1.93c0.13,0.91 0,1.84 -0.4,2.71c-0.3,0.72 -0.78,1.35 -1.48,1.81c-0.51,0.3 -1.12,0.54 -1.34,0.94c-0.27,0.45 -0.07,1.15 0.24,1.78c0.61,1.29 1.45,2.2 2.06,3.28c0.48,0.84 0.78,1.81 1.04,2.83c0.27,1.02 0.54,2.11 0.13,3.04c-0.21,0.54 -0.64,1.05 -0.7,1.63c-0.1,0.64 0.24,1.39 0.78,1.81c0.85,0.7 2.19,0.6 3.31,0.81c0.78,0.15 1.42,0.45 2.22,0.51c0.57,0.03 1.18,-0.03 1.58,0.21c0.43,0.24 0.61,0.81 0.81,1.32c0.34,0.91 0.74,1.69 1.28,2.39c0.4,0.51 0.88,0.99 1.28,1.54c0.13,0.43 0.37,0.78 0.61,1.15l0,0.06zm-13.97,-7.93c0.03,-0.06 0.07,-0.13 0.07,-0.18c-0.03,-0.13 -0.07,-0.24 -0.1,-0.36c-0.17,-0.94 -0.17,-1.93 -0.13,-2.87c0.03,-1.02 0.1,-2.02 0.17,-3.1c0.03,-0.64 0.07,-1.29 -0.21,-1.78c-0.24,-0.45 -0.74,-0.78 -1.28,-1.18c-0.43,-0.33 -0.88,-0.7 -1.25,-0.64c-0.3,0.06 -0.54,0.48 -0.78,0.84c-0.74,0.99 -1.79,1.45 -2.83,1.86c-0.78,0.3 -1.55,0.64 -2.33,0.94c-0.1,0.03 -0.21,0 -0.27,-0.06c-0.07,-0.06 -0.07,-0.15 0,-0.24c0.48,-0.57 0.98,-1.15 1.58,-1.66c0.61,-0.54 1.28,-0.99 1.82,-1.56c0.67,-0.75 1.12,-1.75 1.48,-2.66c0.61,-1.42 1.18,-2.66 2.12,-4.25c0.4,-0.7 0.85,-1.42 0.57,-1.93c-0.17,-0.3 -0.61,-0.51 -0.98,-0.75c-1.25,-0.78 -2.06,-1.75 -2.94,-2.69c-0.88,-0.94 -1.85,-1.84 -2.83,-2.69c-0.61,-0.54 -1.25,-1.08 -1.89,-1.63c-1.25,-1.05 -2.57,-2.17 -3.71,-3.04c-0.74,-0.57 -1.42,-1.05 -2.43,-1.93c-0.78,-0.64 -1.76,-1.51 -2.06,-1.18c-0.17,0.18 -0.1,0.7 -0.1,1.18c0.07,1.08 0,1.86 0.1,2.69c0.21,1.35 0.88,2.87 0.94,4.31c0.03,1.27 -0.4,2.53 -0.61,3.8c-0.24,1.75 0.03,3.55 -0.21,5.3c-0.13,1.15 -0.51,2.26 -0.57,3.44c-0.03,0.67 0.03,1.35 0.24,1.99c0.3,0.91 0.94,1.72 1.48,2.59c0.34,0.6 0.64,1.21 0.91,1.81c0.07,0.15 0,0.27 -0.13,0.36c-0.13,0.09 -0.3,0.06 -0.43,-0.06c-0.27,-0.27 -0.51,-0.54 -0.74,-0.78c-0.61,-0.6 -1.21,-1.11 -1.96,-1.9c-0.51,-0.51 -1.08,-1.15 -1.52,-1.05c-0.4,0.09 -0.7,0.78 -0.85,1.35c-0.13,0.57 -0.07,1.05 -0.24,1.54c-0.1,0.27 -0.27,0.57 -0.3,0.84c-0.03,0.33 0.13,0.67 0.21,0.99c0.1,0.67 -0.1,1.29 -0.3,1.93c-0.4,1.21 -0.7,2.39 -0.85,3.62c-0.1,0.91 -0.17,1.84 0.07,2.71c0.24,0.84 0.7,1.63 1.25,2.39c0.54,0.75 1.12,1.45 1.92,1.96c0.54,0.33 1.18,0.6 1.76,0.81c0.81,0.3 1.48,0.54 2.53,0.97c0.57,0.24 1.21,0.51 1.45,0.24c0.07,-0.13 0.1,-0.3 0.1,-0.48c0.03,-0.3 0.13,-0.6 0.27,-0.84c0.27,-0.57 0.74,-1.08 1.21,-1.56c0.81,-0.88 1.62,-1.72 2.49,-2.53c1.15,-1.11 2.4,-2.23 3.4,-3.26c0.24,-0.24 0.48,-0.48 0.94,-0.64c0.37,-0.13 0.88,-0.18 0.91,-0.06c0.03,0.09 -0.24,0.27 -0.4,0.48c-0.24,0.3 -0.34,0.72 -0.21,0.81c0.13,0.09 0.57,-0.21 0.85,-0.48c0.57,-0.54 0.57,-0.97 1.04,-1.59c0.43,-0.6 1.31,-1.39 1.55,-1.08c0.13,0.15 0.07,0.6 -0.03,0.91c-0.13,0.33 -0.37,0.51 -0.54,0.88c-0.1,0.24 -0.21,0.54 -0.13,0.6c0.1,0.09 0.4,-0.21 0.67,-0.45c0.54,-0.51 0.85,-0.88 1.34,-0.97c0.17,-0.03 0.34,0 0.54,0c0,0.06 0.07,0.03 0.1,-0.03l0.05,-0.02zm-2.06,-26.01c0.27,-0.24 -0.13,-0.75 -0.54,-1.11c-0.61,-0.54 -1.21,-0.72 -1.82,-0.97c-0.7,-0.3 -1.45,-0.7 -2.22,-1.05c-0.78,-0.36 -1.55,-0.7 -2.22,-0.99c-0.48,-0.21 -0.91,-0.43 -1.48,-0.81c-0.07,-0.06 -0.17,-0.13 -0.24,-0.18c-0.43,-0.3 -0.94,-0.72 -0.88,-0.81c0.03,-0.09 0.7,0.18 1.28,0.4c0.98,0.36 1.55,0.54 2.22,0.75c1.12,0.33 2.43,0.72 3.71,1.05c0.54,0.15 1.04,0.3 1.58,0.43c0.1,0.03 0.21,0 0.27,-0.09c0.07,-0.09 0.03,-0.18 -0.07,-0.24c-0.43,-0.3 -0.85,-0.57 -1.28,-0.84c-0.88,-0.57 -1.76,-1.02 -2.8,-1.56c-0.64,-0.33 -1.31,-0.67 -2.03,-0.88c-0.91,-0.24 -1.89,-0.24 -2.76,-0.45c-1.08,-0.21 -2.03,-0.72 -3,-1.15c-1.31,-0.6 -2.67,-1.15 -3.88,-1.86c-0.24,-0.15 -0.48,-0.3 -0.7,-0.48c-0.7,-0.48 -1.39,-1.05 -2.06,-1.56c-0.85,-0.7 -1.72,-1.35 -2.63,-1.99c-1.25,-0.91 -2.53,-1.75 -3.91,-2.44c-1.12,-0.54 -2.3,-0.94 -3.48,-1.35c-0.85,-0.3 -1.72,-0.6 -2.6,-0.78c-1.12,-0.21 -2.33,-0.24 -3.45,0.09c-0.37,0.13 -0.78,0.27 -1.15,0.3c-0.4,0 -0.78,-0.15 -1.21,-0.06c-0.1,0.03 -0.21,0.06 -0.27,0.09c-0.24,0.15 0.37,0.48 0.85,0.67c0.54,0.21 0.88,0.21 1.28,0.21c0.67,0 1.45,0 2.19,0c0.88,0 1.76,0.03 2.57,0.18c1.58,0.33 3,1.18 4.42,1.93c0.37,0.18 0.7,0.36 1.04,0.54c0.64,0.33 1.28,0.64 1.92,0.97c1.12,0.57 2.19,1.18 3.27,1.81c0.91,0.54 1.85,1.11 2.7,1.72c0.03,0.03 0.07,0.06 0.1,0.09c0.85,0.57 1.62,1.21 2.4,1.78c0.4,0.3 0.81,0.64 1.28,0.91c0.61,0.4 1.34,0.75 2.09,1.02c0.34,0.13 0.67,0.21 0.88,0.43c0.1,0.13 0.17,0.3 0.27,0.45c0.27,0.36 0.74,0.57 1.18,0.81c0.13,0.09 0.3,0.15 0.43,0.24c0.94,0.6 1.66,1.39 2.49,2.08c0.94,0.78 2.03,1.42 3.1,2.05c0.48,0.27 0.98,0.54 1.48,0.72c0.37,0.13 0.78,0.21 1.21,0.13c0.21,0 0.37,-0.03 0.43,-0.13l0,-0.05zm-3.4,2.02c0.74,0.45 1.82,0.99 1.79,0.75c0,-0.13 -0.3,-0.45 -0.61,-0.72c-0.43,-0.43 -0.81,-0.7 -1.21,-0.99c-0.67,-0.51 -1.31,-1.15 -2.06,-1.75c-0.34,-0.27 -0.67,-0.54 -1.01,-0.81c-0.51,-0.43 -0.98,-0.84 -1.39,-1.27c-0.48,-0.57 -0.78,-1.15 -1.69,-1.78c-0.81,-0.54 -2.09,-1.11 -2.06,-0.88c0.03,0.15 0.51,0.57 0.91,0.91c0.37,0.33 0.64,0.54 0.94,0.78c0.3,0.24 0.64,0.51 0.98,0.78c0.64,0.54 1.25,1.11 1.82,1.69c0.57,0.51 1.15,1.02 1.58,1.54c0.57,0.54 0.94,1.08 1.99,1.75l0.01,0zm-2.12,-9.86c0.21,-0.24 -0.1,-0.81 -0.48,-1.21c-0.4,-0.43 -0.88,-0.57 -1.39,-0.72c-0.98,-0.3 -1.99,-0.57 -2.97,-0.91c-0.27,-0.09 -0.51,-0.18 -0.78,-0.27c-1.28,-0.45 -2.49,-0.99 -3.75,-1.54c-1.15,-0.48 -2.26,-0.99 -3.4,-1.48c-0.1,-0.03 -0.21,-0.03 -0.27,0.06c-0.07,0.06 -0.07,0.18 0,0.24c0.7,0.81 1.42,1.59 2.3,2.26c0.61,0.45 1.31,0.84 2.09,1.11c0.54,0.18 1.12,0.3 1.62,0.54c0.7,0.3 1.31,0.78 1.96,1.11c1.04,0.54 2.12,0.72 3.71,0.91c0.54,0.03 1.15,0.13 1.34,-0.13l0,0.01zm-2.57,-4.43c0.1,-0.18 -0.24,-0.72 -0.57,-1.08c-0.37,-0.4 -0.78,-0.57 -1.18,-0.78c-0.94,-0.48 -1.92,-1.18 -2.97,-1.63c-1.52,-0.67 -3.21,-0.94 -4.79,-1.51c-1.92,-0.72 -3.67,-1.93 -5.67,-2.32c-1.25,-0.24 -2.57,-0.18 -3.85,-0.27c-1.12,-0.09 -2.19,-0.33 -3.27,-0.57c-0.1,-0.03 -0.21,0 -0.27,0.09s-0.03,0.18 0.07,0.24c0.1,0.09 0.24,0.15 0.37,0.21c0.85,0.43 1.89,0.54 2.83,0.81c1.12,0.3 2.09,0.84 3.13,1.29c0.4,0.18 0.85,0.33 1.21,0.54c0.7,0.36 1.31,0.88 1.99,1.21c0.64,0.33 1.39,0.54 2.12,0.75c1.52,0.45 3.07,1.02 4.42,1.48c0.03,0 0.03,0 0.07,0.03c1.45,0.45 2.67,0.75 4.79,1.35c0.67,0.18 1.42,0.4 1.55,0.15l0,0.01zm-10.94,22.16c0.27,-3.53 0.57,-7.21 0,-10.7c-0.34,-2.11 -1.01,-4.19 -1.92,-6.15c-0.67,-1.48 -1.45,-2.87 -2.73,-4.07c-0.7,-0.67 -1.55,-1.24 -2.46,-1.66c-0.13,-0.06 -0.3,-0.03 -0.4,0.06c-0.1,0.09 -0.13,0.24 -0.03,0.36c0.21,0.3 0.43,0.6 0.64,0.94c0.37,0.6 0.74,1.21 0.94,1.86c0.43,1.15 0.51,2.39 0.61,3.65c0.13,1.63 0.27,3.31 -0.37,4.79c-0.27,0.6 -0.67,1.15 -1.04,1.69c-0.07,-0.3 -0.1,-0.57 -0.27,-0.84c-0.1,-0.21 -0.3,-0.4 -0.48,-0.57c-0.48,-0.45 -1.04,-0.84 -1.69,-1.08c-1.21,-0.45 -2.63,-0.36 -4.01,-0.15c-1.69,0.24 -3.37,0.6 -4.55,1.54c-0.74,0.6 -1.31,1.42 -1.85,2.26c-0.21,-0.03 -0.4,-0.09 -0.61,-0.13c-0.61,-0.13 -1.18,-0.18 -1.82,-0.09c-0.91,0.15 -1.89,0.67 -2.6,1.21c-0.74,0.57 -1.21,1.21 -1.66,1.84c-0.91,1.32 -1.69,2.77 -2.16,4.46c-0.27,0.99 -0.43,2.08 -0.48,3.2c-0.03,1.51 0.17,3.07 1.12,4.13c0.48,0.54 1.12,0.94 1.82,1.27c1.08,0.48 2.22,0.78 3.4,0.97c0.64,0.09 1.28,0.15 1.92,0.24c0.85,0.13 1.66,0.3 2.49,0.43c1.31,0.15 2.67,0.13 4.01,0.09c1.76,-0.03 3.51,0 5.3,-0.18c1.92,-0.18 3.88,-0.6 5.37,-1.63c1.42,-0.97 2.4,-2.47 2.9,-4.01c0.43,-1.24 0.51,-2.44 0.61,-3.71l0,-0.03zm-4.66,19.23c0.24,-1.21 0.13,-2.35 0.13,-3.58c0,-1.11 0.03,-2.32 -0.54,-3.23c-0.43,-0.67 -1.18,-1.18 -1.99,-1.56c-0.78,-0.36 -1.62,-0.6 -2.43,-0.7c-1.04,-0.09 -2.09,0.09 -3.13,0.24c-1.66,0.21 -3.31,0.3 -4.89,0.06c-1.08,-0.15 -2.12,-0.45 -3.21,-0.57c-1.08,-0.13 -2.12,-0.09 -3.24,0.03c-1.15,0.13 -2.36,0.36 -3.18,0.99c-0.81,0.64 -1.25,1.69 -1.42,2.71c-0.17,1.11 0,2.14 0.07,3.26c0.1,1.54 -0.03,3.17 0.74,4.55c0.27,0.51 0.67,0.97 1.18,1.32c0.57,0.4 1.25,0.6 1.96,0.7c1.08,0.15 2.19,0.06 3.27,0.13c1.21,0.09 2.4,0.36 3.54,0.75c1.08,0.4 2.12,0.84 3.13,1.39c0.51,0.27 0.98,0.54 1.45,0.84c0.07,0.06 0.17,0.06 0.27,0s0.1,-0.15 0.07,-0.21c-0.24,-0.67 -0.43,-1.32 -0.27,-1.99c0.13,-0.6 0.51,-1.21 0.48,-1.81c-0.03,-0.36 -0.24,-0.72 -0.4,-1.08c-0.4,-0.88 -0.64,-1.78 -1.01,-2.66c-0.43,-1.18 -1.12,-2.29 -1.96,-3.28c-0.17,-0.21 -0.34,-0.4 -0.54,-0.57c-0.1,-0.13 -0.1,-0.27 0,-0.4c0.1,-0.13 0.27,-0.15 0.4,-0.09c0.21,0.09 0.4,0.21 0.61,0.33c0.74,0.43 1.39,0.99 1.96,1.59c0.94,0.97 1.69,2.05 2.46,3.07c0.51,0.67 1.01,1.29 1.45,2.14c0.13,0.27 0.27,0.57 0.51,0.67c0.3,0.13 0.81,-0.15 1.25,-0.06c0.24,0.06 0.43,0.21 0.64,0.18c0.13,0 0.3,-0.09 0.43,-0.21c0.57,-0.36 1.12,-0.67 1.48,-1.11c0.34,-0.48 0.57,-1.15 0.7,-1.84l0.01,0.02zm-9.28,-42.54c0.13,-0.45 0.17,-0.97 -0.03,-1.35c-0.24,-0.4 -0.78,-0.64 -1.31,-0.88c-1.79,-0.75 -3.4,-1.35 -5.09,-1.93c-0.13,-0.06 -0.27,-0.09 -0.4,-0.15c-1.25,-0.43 -2.53,-0.84 -3.85,-1.27c-0.91,-0.3 -1.85,-0.57 -2.76,-0.81c-0.74,-0.18 -1.48,-0.36 -2.33,-0.3c-0.61,0.03 -1.21,0.18 -1.55,0.57c-0.27,0.3 -0.34,0.75 -0.37,1.21c-0.03,0.4 -0.07,0.75 -0.1,1.15c0,0.09 -0.07,0.15 -0.17,0.18c-0.1,0.03 -0.21,-0.03 -0.24,-0.09c-0.17,-0.3 -0.37,-0.64 -0.61,-0.91c-0.43,-0.54 -1.01,-1.05 -1.69,-1.32c-0.67,-0.27 -1.48,-0.33 -2.22,-0.21c-1.21,0.18 -2.26,0.78 -3.37,1.29c-1.92,0.91 -3.95,1.56 -5.57,2.17c-0.81,0.3 -1.52,0.57 -2.63,0.99c-0.64,0.24 -1.39,0.48 -2.19,0.7c-0.37,0.09 -0.74,0.15 -0.88,0.3c-0.3,0.3 0.27,0.84 0.78,1.29c1.39,1.21 2.4,1.72 3.58,2.17c1.18,0.45 2.53,0.91 3.95,1.18c1.42,0.24 2.87,0.3 4.18,0.13c0.91,-0.13 1.76,-0.36 2.87,-0.4c0.4,0 0.81,0 1.01,-0.18c0.21,-0.21 0.13,-0.64 0.13,-1.02c0.03,-0.75 0.4,-1.35 0.51,-1.93c0.1,-0.57 -0.03,-1.15 -0.1,-1.96c-0.03,-0.4 -0.03,-0.84 0.1,-0.97c0.21,-0.24 0.85,0.84 1.25,1.54c0.27,0.43 0.48,0.7 0.54,1.02c0,0.06 0.03,0.09 0.07,0.15c0.1,0.15 0.48,0.13 0.78,0.09c0.34,0 0.61,-0.03 0.94,0c0.24,0.03 0.54,0.06 0.67,-0.06c0.13,-0.13 0.1,-0.4 0.1,-0.64c-0.03,-0.54 0.1,-0.84 0.24,-1.39c0.1,-0.4 0.17,-0.84 0.3,-0.91c0.17,-0.06 0.4,0.57 0.61,1.15c0.4,1.21 0.61,2.02 0.81,2.8c0.1,0.36 0.17,0.72 0.3,1.18c0.07,0.24 0.13,0.51 0.3,0.7c0.21,0.21 0.61,0.3 0.94,0.36c0.85,0.15 1.48,0.24 2.22,0.33c1.58,0.15 3.48,0.24 5.19,-0.13c1.08,-0.24 2.06,-0.67 2.97,-1.21c0.64,-0.4 1.25,-0.84 1.62,-1.42c0.21,-0.43 0.37,-0.78 0.51,-1.24l-0.01,0.01zm-4.92,-7.96c0.03,-0.13 0,-0.27 -0.1,-0.33c-0.13,-0.09 -0.34,-0.06 -0.51,-0.03c-0.34,0.03 -0.64,-0.03 -0.91,-0.15c-0.91,-0.3 -1.76,-0.91 -2.33,-1.59c-0.1,-0.13 -0.21,-0.27 -0.3,-0.4c-0.3,-0.48 -0.54,-0.99 -0.85,-1.51c-0.4,-0.7 -0.88,-1.42 -0.85,-2.14c0.07,-0.75 0.67,-1.48 0.7,-2.23c0.03,-0.4 -0.1,-0.81 -0.17,-1.24c-0.1,-0.54 -0.07,-1.05 -0.17,-1.56c-0.07,-0.54 -0.27,-1.05 -0.3,-1.59c-0.07,-0.7 0.1,-1.39 0.24,-2.08c0.07,-0.43 0.13,-0.84 0.17,-1.29c0.03,-0.7 -0.03,-1.42 0.13,-2.11c0,0 0,0 0,-0.03c0.1,-0.36 0.24,-0.72 0.24,-1.08c0,-0.36 -0.17,-0.75 -0.07,-1.11c0.1,-0.45 0.61,-0.84 0.48,-1.29c-0.03,-0.18 -0.24,-0.4 -0.24,-0.57c0,-0.18 0.13,-0.4 0.24,-0.57c0.07,-0.18 0.07,-0.4 0.1,-0.57c0.03,-0.24 0.1,-0.43 0.17,-0.72c0.1,-0.4 0.21,-0.99 0,-0.94c-0.07,0.03 -0.21,0.13 -0.3,0.21c-0.48,0.43 -0.61,0.88 -0.88,1.32c-0.3,0.51 -0.81,1.02 -0.91,1.59c-0.07,0.36 0,0.72 -0.07,1.05c-0.13,0.51 -0.61,0.94 -0.85,1.42c-0.34,0.64 -0.3,1.39 -0.43,2.08c-0.07,0.24 -0.13,0.51 -0.21,0.75c-0.03,0.06 0,0.15 0.07,0.18c0.07,0.03 0.17,0.03 0.21,-0.03c0.17,-0.18 0.34,-0.36 0.43,-0.54c0.24,-0.36 0.3,-0.72 0.57,-1.29c0.24,-0.51 0.64,-1.21 0.85,-0.99c0.07,0.06 0.1,0.21 0.13,0.36c0.03,0.24 0.03,0.43 0,0.64c-0.03,0.18 -0.1,0.33 -0.24,0.48c-0.17,0.21 -0.37,0.4 -0.48,0.64c-0.1,0.21 -0.07,0.48 -0.1,0.75c-0.03,0.54 -0.3,0.99 -0.57,1.54c-0.24,0.48 -0.51,1.05 -0.24,1.48c0.07,0.13 0.17,0.24 0.24,0.36c0.3,0.48 0.24,1.05 0.17,1.63c-0.1,0.97 -0.17,1.86 -0.48,2.77c-0.21,0.6 -0.54,1.18 -0.57,1.81c-0.03,0.54 0.1,1.08 0.43,1.54c0.24,0.33 0.51,0.6 0.78,0.91c0.43,0.54 0.78,1.18 0.81,1.86c0.03,0.36 -0.03,0.7 0.1,0.99c0.21,0.4 0.78,0.67 0.91,1.11c0.07,0.24 0.03,0.57 0.13,0.75c0.21,0.33 0.98,0.18 1.58,0.09c0.91,-0.13 1.42,-0.06 2.36,-0.03c0.34,0 0.78,0 0.85,-0.27l0.02,-0.01zm-6.24,-24.9c0.34,-0.48 0.67,-0.94 0.98,-1.39c-0.27,0.06 -0.57,0.15 -0.81,0.21c-0.48,0.13 -0.88,0.21 -1.48,0.43c-0.48,0.18 -1.04,0.43 -0.94,0.67c0.1,0.27 1.01,0.54 0.91,0.78c-0.03,0.09 -0.17,0.18 -0.3,0.24c-0.48,0.3 -0.85,0.67 -1.15,1.02c-0.27,0.36 -0.51,0.75 -0.67,1.11c-0.21,0.43 -0.34,0.84 -0.51,1.45c-0.1,0.4 -0.24,0.88 -0.4,0.94c-0.21,0.06 -0.48,-0.33 -0.78,-0.75c-0.54,-0.72 -1.15,-1.51 -1.31,-1.32c-0.13,0.15 -0.07,0.78 0.1,1.24c0.17,0.4 0.4,0.67 0.64,0.97c0.37,0.51 0.61,1.15 0.85,1.78c0.24,0.6 0.54,1.18 0.61,1.75c0.03,0.36 -0.03,0.72 0.1,1.11c0.07,0.18 0.21,0.4 0.3,0.4c0.17,0.03 0.24,-0.51 0.3,-0.91c0.07,-0.33 0.17,-0.57 0.27,-0.81c0.21,-0.67 0.24,-1.45 0.24,-2.26c0,-0.64 -0.03,-1.24 0.24,-1.78c0.13,-0.24 0.3,-0.48 0.48,-0.72c0.43,-0.6 0.67,-1.29 1.01,-1.93c0.37,-0.75 0.85,-1.51 1.34,-2.2l-0.03,-0.03zm-0.57,-4.92c0,-0.13 -0.17,-0.27 -0.27,-0.43c-0.21,-0.3 -0.1,-0.64 -0.3,-0.81c-0.17,-0.15 -0.64,-0.15 -1.04,-0.13c-0.51,0.06 -0.91,0.18 -1.31,0.36c-0.24,0.13 -0.48,0.24 -0.67,0.4c-0.07,0.03 -0.1,0.09 -0.07,0.15c0.03,0.06 0.07,0.09 0.17,0.13c0.21,0 0.4,0.03 0.61,0.03c0.37,0.03 0.74,0.06 1.01,0.27c0.17,0.13 0.27,0.33 0.43,0.4c0.17,0.06 0.37,0.03 0.64,-0.03c0.03,0 0.03,0 0.07,0c0.34,-0.06 0.7,-0.15 0.74,-0.33l-0.01,0zm-0.81,28.8c0.27,-0.7 0.57,-1.42 0.34,-1.99c-0.17,-0.43 -0.61,-0.75 -1.08,-1.18c0,-0.03 -0.03,-0.03 -0.03,-0.03c-0.64,-0.64 -1.28,-1.51 -1.82,-1.42c-0.48,0.06 -0.88,0.78 -1.31,1.32c-0.64,0.84 -1.34,1.35 -1.76,2.11c-0.3,0.54 -0.43,1.18 -0.54,1.84c0,0.09 0,0.18 0.07,0.24c0.07,0.06 0.13,0.09 0.24,0.09c0.27,0 0.54,0 0.85,0.03c0.54,0.03 1.08,0.09 1.58,0.27c0.57,0.18 1.12,0.48 1.69,0.43c0.37,-0.03 0.78,-0.18 1.04,-0.43c0.37,-0.3 0.54,-0.78 0.74,-1.29l-0.02,-0.01zm-1.34,-25.57c0.3,-0.36 0.54,-0.97 0.37,-1.11c-0.17,-0.13 -0.67,0.13 -1.04,0.3c-0.27,0.13 -0.48,0.21 -0.67,0.27c-0.1,0.03 -0.21,0.09 -0.3,0.13c-0.21,0.09 -0.43,0.15 -0.64,0.24c-0.21,0.06 -0.37,0.09 -0.51,0.24c-0.21,0.21 -0.27,0.57 -0.13,0.7c0.13,0.09 0.43,0 0.67,0.06c0.21,0.06 0.37,0.27 0.54,0.3c0.24,0.06 0.48,-0.18 0.74,-0.36c0.3,-0.27 0.64,-0.36 0.98,-0.75l-0.01,-0.01zm-2.16,59.36c0.07,-0.72 0.13,-1.45 0.07,-2.17c-0.13,-1.24 -0.74,-2.47 -1.52,-3.58c-0.78,-1.11 -1.76,-2.08 -2.8,-2.9c-0.81,-0.6 -1.69,-1.11 -2.73,-1.39c-0.74,-0.21 -1.55,-0.27 -2.26,-0.06c-0.57,0.15 -1.08,0.51 -1.52,0.91c-0.61,0.54 -1.12,1.11 -1.66,1.72c-0.37,-0.67 -0.7,-1.32 -1.15,-2.02c-0.4,-0.7 -0.88,-1.35 -1.55,-1.84c-0.7,-0.54 -1.66,-0.84 -2.6,-0.99c-1.15,-0.18 -2.3,-0.13 -3.4,0.09c-1.25,0.24 -2.46,0.64 -3.54,1.27c-0.67,0.4 -1.25,0.84 -1.85,1.32c-0.43,-0.7 -0.91,-1.35 -1.21,-2.11c-0.64,-1.54 -0.61,-3.31 -0.34,-5c0.27,-1.72 0.81,-3.38 1.69,-4.85c0.54,-0.91 1.21,-1.75 1.85,-2.56c-1.12,0.54 -2.22,1.05 -3.34,1.56c-2.33,1.05 -4.76,1.96 -7.19,2.83c-2.09,0.75 -4.18,1.48 -6.34,2.05c-2.33,0.64 -4.69,1.08 -7.06,1.59c-1.79,0.4 -3.54,0.81 -5.19,1.54c-0.7,0.3 -1.39,0.7 -2.12,0.78c-0.43,0.06 -0.88,0.03 -1.31,0.13c-0.91,0.18 -1.66,0.81 -2.53,1.21c-0.67,0.3 -1.45,0.48 -1.96,0.91c-0.4,0.36 -0.64,0.91 -0.91,1.39c-0.43,0.91 -0.94,1.75 -1.48,2.59c-0.51,0.81 -1.01,1.63 -1.25,2.56c-0.17,0.6 -0.21,1.27 -0.07,1.86c0.27,1.35 1.31,2.53 2.33,3.62c1.01,1.15 1.99,2.2 3.07,3.28c0.51,0.51 1.01,1.02 1.66,1.35c0.34,0.18 0.7,0.33 1.08,0.45c-0.34,0.15 -0.7,0.3 -1.04,0.3c-0.67,0.06 -1.34,-0.36 -1.99,-0.72c-0.74,-0.45 -1.45,-0.88 -1.85,-1.51c-0.21,-0.3 -0.34,-0.7 -0.57,-0.97c-0.34,-0.4 -0.85,-0.6 -1.31,-0.84c-0.54,-0.3 -1.01,-0.64 -1.52,-1.02c-0.13,-0.09 -0.24,-0.18 -0.37,-0.24c-0.67,-0.27 -1.48,0.57 -1.92,1.35c-0.51,0.94 -0.4,1.75 -0.27,2.59c0.24,1.42 0.7,2.9 1.45,4.19c0.85,1.45 2.06,2.69 3.45,3.71c1.45,1.11 3.1,1.99 4.59,3.14c0.7,0.54 1.42,1.15 2.36,1.29c0.4,0.09 0.88,0.06 1.18,0.24c0.21,0.09 0.3,0.27 0.54,0.45c0.13,0.13 0.34,0.24 0.43,0.21c0.07,-0.03 0,-0.27 -0.07,-0.45c-0.27,-0.7 -0.64,-0.99 -0.94,-1.39c-0.37,-0.48 -0.67,-1.15 -1.01,-1.69c-0.21,-0.33 -0.43,-0.6 -0.61,-1.02c-0.1,-0.24 -0.24,-0.54 -0.03,-0.67c0.03,-0.03 0.1,-0.06 0.17,-0.06c0.3,-0.03 0.51,0.3 0.67,0.6c0.54,0.88 1.04,1.42 1.62,2.02c0.48,0.54 1.01,1.11 1.62,1.59c0.54,0.43 1.15,0.75 1.76,1.11c0.43,0.27 0.88,0.51 1.31,0.78c-0.21,-0.27 -0.4,-0.54 -0.61,-0.81c-0.27,-0.36 -0.51,-0.72 -0.74,-1.08c-0.17,-0.3 -0.34,-0.57 -0.57,-0.84c-0.13,-0.15 -0.27,-0.33 -0.27,-0.54c0,-0.09 0.03,-0.21 0.1,-0.27c0.17,-0.18 0.48,0.21 0.74,0.54c0.91,1.05 1.42,1.51 2.16,2.05c0.54,0.4 1.25,0.81 2.03,0.99c1.15,0.3 2.53,0.13 3.51,-0.27c0.3,-0.13 0.57,-0.27 0.94,-0.3c0.34,-0.03 0.74,0.03 0.94,-0.09c0.24,-0.15 0.13,-0.6 0.1,-0.97c-0.03,-0.6 0.1,-1.05 0,-1.54c-0.07,-0.43 -0.3,-0.84 -0.37,-1.27c-0.1,-0.6 0.07,-1.24 -0.03,-1.86c-0.07,-0.6 -0.4,-1.18 -0.57,-1.78c-0.21,-0.7 -0.21,-1.42 -0.37,-2.11c-0.24,-1.05 -0.78,-2.02 -1.55,-2.9c-0.24,-0.27 -0.51,-0.54 -0.61,-0.84c-0.13,-0.45 0.1,-0.99 0.24,-1.45c0.07,-0.24 0.13,-0.48 0.21,-0.81c0.07,-0.24 0.13,-0.57 0.07,-0.64c-0.1,-0.09 -0.43,0.13 -0.74,0.27c-0.4,0.21 -0.78,0.3 -1.08,0.15c-0.17,-0.09 -0.3,-0.3 -0.3,-0.51c0,-0.18 0.13,-0.36 0.3,-0.43c0.13,-0.06 0.34,0 0.48,0c0.3,-0.03 0.54,-0.3 0.74,-0.57c1.01,-1.29 1.79,-2.35 2.6,-3.5c1.25,-1.72 2.49,-3.65 3.27,-5.64c0.34,-0.84 0.57,-1.72 0.78,-2.59c0.24,-0.97 0.43,-1.96 0.57,-2.93c0.07,-0.45 0.13,-0.88 0.1,-1.35c0,-0.27 -0.07,-0.54 0.1,-0.75c0.1,-0.15 0.34,-0.3 0.51,-0.3c0.43,-0.06 0.34,0.78 0.3,1.48c-0.1,1.35 -0.03,2.08 -0.07,3.01c0,0.7 -0.07,1.54 -0.24,2.29c-0.24,0.99 -0.74,1.9 -1.15,2.83c-0.3,0.7 -0.54,1.39 -0.67,2.11c-0.21,1.11 -0.17,2.29 0.1,3.44c0.27,1.05 0.67,2.08 1.42,2.9c0.91,1.02 2.26,1.69 3.58,2.35c1.39,0.7 2.7,1.45 4.12,1.99c2.49,0.99 5.3,1.51 8.03,1.84c1.66,0.18 3.27,0.3 4.92,0.4c2.73,0.09 5.53,0 8.19,-0.45c1.55,-0.27 3.03,-0.67 4.55,-1.42c0.91,-0.45 1.79,-1.02 2.4,-1.66c1.21,-1.48 1.25,-3.1 1.39,-4.73l-0.03,0.02zm0.03,-62.14c0.03,-0.06 0,-0.13 -0.07,-0.15c-0.07,-0.03 -0.13,-0.03 -0.17,0c-0.24,0.13 -0.48,0.21 -0.7,0.24c-0.24,0.03 -0.48,0 -0.7,0.03c-0.37,0.03 -0.67,0.15 -1.01,0.3c-0.21,0.09 -0.4,0.21 -0.61,0.3c-0.07,0.03 -0.1,0.09 -0.07,0.15c0.03,0.06 0.07,0.13 0.13,0.13c0.17,0.03 0.3,0.06 0.43,0.13c0.27,0.13 0.54,0.36 0.78,0.4c0.37,0.06 0.74,-0.27 1.12,-0.54c0.27,-0.18 0.54,-0.36 0.67,-0.57c0.1,-0.13 0.17,-0.27 0.21,-0.4l0,-0.01zm-0.67,79.53c0.13,-1.15 0.27,-2.26 0.24,-3.31c-0.03,-0.81 -0.17,-1.59 -0.4,-2.42c-0.24,-0.81 -0.54,-1.66 -1.21,-2.2c-0.54,-0.45 -1.34,-0.67 -2.12,-0.84c-0.91,-0.18 -1.82,-0.24 -2.73,-0.21c-1.21,0.06 -2.4,0.36 -3.61,0.54c-0.74,0.13 -1.52,0.15 -2.26,0.21c-3.82,0.24 -7.66,0.3 -11.47,-0.13c-2.8,-0.3 -5.57,-0.84 -8.19,-1.75c-1.34,-0.45 -2.67,-1.02 -3.98,-1.59c-0.1,-0.03 -0.21,-0.03 -0.27,0.03c-0.07,0.06 -0.07,0.15 -0.03,0.24c0.24,0.36 0.51,0.7 0.78,0.99c0.7,0.81 1.66,1.48 2.6,2.11c0.85,0.54 1.72,1.08 2.6,1.59c0.21,0.13 0.4,0.24 0.57,0.33c0.1,0.06 0.13,0.15 0.1,0.24c-0.03,0.09 -0.13,0.15 -0.24,0.13c-0.24,-0.03 -0.48,-0.09 -0.7,-0.15c-1.39,-0.3 -2.73,-0.75 -3.91,-1.45c-0.98,-0.57 -1.85,-1.29 -2.73,-1.96c-0.17,-0.15 -0.37,-0.27 -0.54,-0.43c-0.1,-0.06 -0.21,-0.06 -0.27,0c-0.1,0.06 -0.1,0.15 -0.07,0.24c0.13,0.24 0.27,0.51 0.4,0.78c0.27,0.54 0.48,1.15 0.78,1.69c0.43,0.78 1.04,1.48 1.72,2.14c0.91,0.91 1.89,1.75 2.76,2.66c0.34,0.36 0.67,0.72 0.98,1.11c0.07,0.09 0.07,0.18 0,0.24c-0.07,0.09 -0.17,0.09 -0.27,0.06c-0.51,-0.24 -0.98,-0.48 -1.45,-0.75c-0.61,-0.36 -1.15,-0.75 -1.69,-1.18c-1.31,-1.02 -2.53,-2.17 -3.48,-3.47c-0.24,-0.3 -0.43,-0.64 -0.67,-0.97c-0.07,-0.09 -0.17,-0.13 -0.27,-0.09c-0.1,0.03 -0.17,0.13 -0.13,0.21c0.07,0.24 0.1,0.51 0.17,0.75c0.17,0.78 0.37,1.56 0.7,2.29c0.51,1.05 1.34,1.99 2.22,2.9c0.61,0.64 1.21,1.27 1.96,1.78c0.78,0.57 1.72,0.99 2.76,1.27c1.69,0.45 3.75,0.57 5.33,-0.06c0.88,-0.36 1.62,-0.97 2.4,-1.48c1.34,-0.91 2.8,-1.54 4.12,-2.2c1.79,-0.88 3.34,-1.81 5.27,-2.39c0.88,-0.24 1.79,-0.45 2.76,-0.6c0.1,-0.03 0.21,0.03 0.24,0.13c0.03,0.09 0,0.18 -0.1,0.24c-0.27,0.15 -0.54,0.3 -0.78,0.45c-0.74,0.48 -1.42,1.02 -2.12,1.56c-1.12,0.88 -2.36,1.75 -2.87,2.96c-0.3,0.7 -0.37,1.51 -0.37,2.32c0.03,1.21 0.27,2.39 0.61,3.53c0.3,0.99 0.67,1.93 1.04,2.9c0.03,0.06 0.07,0.09 0.13,0.13c0.07,0.03 0.13,0 0.21,-0.03c0.78,-0.45 1.55,-0.88 2.43,-1.18c0.57,-0.18 1.18,-0.3 1.79,-0.33c0.43,-0.03 0.88,0 1.28,-0.03c0.7,-0.06 1.25,-0.24 2.12,-0.7c0.48,-0.24 1.04,-0.57 1.15,-0.33c0.07,0.13 0,0.4 -0.13,0.57c-0.1,0.13 -0.21,0.21 -0.37,0.33c-0.3,0.24 -0.67,0.72 -0.61,0.78c0.07,0.06 0.48,-0.18 0.85,-0.36c0.98,-0.48 1.58,-0.64 2.33,-0.81c0.67,-0.15 1.45,-0.33 2.06,-0.72c0.74,-0.48 1.18,-1.24 1.52,-1.96c0.27,-0.51 0.43,-0.99 0.61,-1.54c0.24,-0.88 0.37,-1.86 0.51,-2.83l-0.03,0.02zm-3.1,-55.08c0,-0.15 -0.78,-0.24 -1.42,-0.33c-1.72,-0.3 -2.6,-0.81 -3.48,-1.63c-0.43,-0.43 -0.91,-0.94 -1.48,-1.21c-0.4,-0.18 -0.85,-0.27 -1.28,-0.4c-1.12,-0.36 -2.06,-1.02 -3,-1.69c-1.18,-0.84 -2.3,-1.66 -3.4,-2.56c-0.64,-0.51 -1.28,-1.05 -1.76,-1.69c-0.94,-1.21 -1.34,-2.69 -1.96,-4.07c-0.4,-0.91 -0.85,-1.78 -1.31,-2.66c-0.13,0.54 -0.27,1.11 -0.37,1.69c-0.27,1.48 -0.3,2.98 -0.43,4.49c-0.03,0.6 -0.1,1.18 -0.03,1.75c0.07,0.75 0.34,1.48 0.74,2.14c0.34,0.57 0.81,1.08 1.18,1.63c0.81,1.18 1.31,2.53 1.99,3.77c0.74,1.29 1.76,2.5 2.87,3.58c0.91,0.91 1.89,1.78 3.03,2.42c0.78,0.45 1.62,0.78 2.53,1.11c0.7,0.24 1.45,0.48 2.16,0.4c0.51,-0.06 0.94,-0.3 1.39,-0.57c0.43,-0.27 0.85,-0.57 1.21,-0.88c-0.51,-0.54 -1.04,-1.05 -1.66,-1.51c-1.15,-0.84 -2.57,-1.42 -3.71,-2.26c-1.39,-0.97 -2.43,-2.32 -3.71,-3.38c-0.54,-0.45 -1.12,-0.84 -1.66,-1.29c-0.67,-0.6 -1.28,-1.29 -1.92,-1.84c-0.4,-0.4 -0.85,-0.7 -1.28,-1.27c-0.34,-0.43 -0.64,-0.99 -0.61,-1.18c0.07,-0.24 1.01,0.48 1.82,1.02c1.66,1.11 2.7,1.39 3.82,2.08c0.91,0.57 1.85,1.39 2.8,2.14c0.98,0.81 1.96,1.51 2.8,2.47c0.51,0.57 0.98,1.24 1.62,1.54c0.27,0.13 0.57,0.18 0.94,0.24c0.27,0.06 0.61,0.09 0.74,-0.03s0.1,-0.45 0.13,-0.67c0.1,-0.48 0.64,-0.6 1.31,-0.81c0.7,-0.21 1.39,-0.43 1.39,-0.57l-0.01,0.03zm-13.4,8.08c0.13,-0.06 0.21,-0.21 0.17,-0.33c-0.03,-0.15 -0.17,-0.21 -0.34,-0.21c-0.98,0.06 -1.96,0.09 -2.94,0.13c-1.76,0.06 -3.51,0.13 -5.22,0.27c-1.01,0.09 -2.03,0.24 -3.1,0.33c-1.52,0.15 -3.21,0.21 -4.59,0.03c-1.01,-0.13 -1.82,-0.4 -2.7,-0.57c-1.99,-0.43 -4.22,-0.43 -6.58,-0.4c-2.73,0.03 -5.64,0.09 -8.3,0.7c-1.85,0.43 -3.61,1.08 -5.37,1.84c-0.81,0.33 -1.58,0.67 -2.26,1.15c-0.34,0.24 -0.64,0.51 -0.94,0.75c-0.37,0.3 -0.74,0.54 -1.18,0.84c-0.27,0.18 -0.57,0.36 -0.57,0.51c0,0.24 0.61,0.45 1.15,0.51c0.7,0.09 1.25,-0.13 1.85,-0.3c0.81,-0.21 1.79,-0.36 2.7,-0.57c1.21,-0.27 2.33,-0.7 3.45,-1.18c0.91,-0.43 1.82,-0.91 2.76,-1.29c0.88,-0.4 1.79,-0.7 2.73,-0.97c0.74,-0.24 1.48,-0.45 2.33,-0.43c0.61,0.03 1.28,0.18 1.76,-0.03c0.21,-0.09 0.34,-0.21 0.61,-0.27c0.27,-0.06 0.61,-0.03 0.7,0.03c0.21,0.15 -0.61,0.45 -1.21,0.67c-0.88,0.3 -1.39,0.36 -1.92,0.48c-0.67,0.15 -1.42,0.36 -2.4,0.75c-0.64,0.27 -1.42,0.6 -1.52,0.75c-0.1,0.18 0.78,0.09 1.76,-0.03l0.13,0.78c-0.78,0.13 -1.52,0.18 -2.3,0.18c-0.7,0 -1.42,-0.06 -2.12,0.06c-0.88,0.15 -1.69,0.54 -2.49,0.91c-1.28,0.54 -2.6,0.97 -3.91,1.29c-0.88,0.24 -1.79,0.43 -2.67,0.64c-0.67,0.15 -1.39,0.33 -1.96,0.6c-0.81,0.36 -1.45,0.84 -2.16,1.66c-0.61,0.67 -1.25,1.56 -0.94,1.84c0.17,0.15 0.64,0.13 1.08,0.03c0.48,-0.09 0.94,-0.21 1.39,-0.33l0.13,0.43c-0.48,0.13 -0.98,0.3 -1.55,0.6c-0.57,0.3 -1.25,0.7 -1.39,0.84c-0.34,0.4 1.99,-0.43 3.71,-0.91c2.26,-0.64 3.4,-0.72 4.66,-1.15c1.15,-0.4 2.36,-1.08 4.12,-1.32c0.37,-0.06 0.74,-0.09 0.91,-0.06c0.51,0.09 -1.21,0.72 -2.53,1.18c-2.87,0.99 -4.01,1.29 -5.77,1.75c-1.04,0.3 -2.3,0.67 -3.37,1.15c-0.7,0.3 -1.34,0.7 -2.09,0.88c-0.54,0.15 -1.15,0.21 -1.58,0.48c-0.51,0.33 -0.7,0.94 -0.81,1.63c-0.07,0.36 -0.07,0.72 0,0.91c0.24,0.43 1.28,-0.72 2.16,-1.42c1.12,-0.88 1.96,-1.08 2.9,-1.39c1.69,-0.54 3.61,-1.29 5.5,-1.96c0.21,-0.06 0.4,-0.15 0.61,-0.21c2.22,-0.75 4.42,-1.39 6.55,-2.26c1.31,-0.54 2.6,-1.15 3.91,-1.69c0.24,-0.09 0.43,-0.18 0.67,-0.27l0.4,0.78c-0.85,0.4 -1.62,0.97 -2.46,1.39c-0.74,0.4 -1.55,0.67 -2.36,0.94c-1.48,0.45 -3,0.81 -4.45,1.29c-1.31,0.45 -2.57,0.97 -3.91,1.42c-0.85,0.27 -1.69,0.54 -2.4,0.97c-0.64,0.4 -1.18,0.91 -1.76,1.39c-0.3,0.24 -0.64,0.48 -0.94,0.7s-0.67,0.43 -1.04,0.6c-0.67,0.33 -1.39,0.64 -1.92,1.05c-0.74,0.57 -1.21,1.39 -1.69,2.2c-0.34,0.6 -0.67,1.21 -0.81,1.78c-0.1,0.4 -0.1,0.78 -0.24,1.32c-0.1,0.3 -0.24,0.64 -0.03,0.78c0.1,0.06 0.3,0.09 0.43,0.03c0.3,-0.09 0.4,-0.43 0.51,-0.7c0.4,-1.05 1.21,-1.72 1.99,-2.42c0.74,-0.67 1.52,-1.32 1.99,-2.17c0.21,-0.4 0.34,-0.81 0.61,-1.15c0.21,-0.27 0.48,-0.51 0.78,-0.72c0.51,-0.33 1.12,-0.6 1.72,-0.88c1.89,-0.88 3.58,-1.81 5.37,-2.56c1.18,-0.48 2.43,-0.91 3.67,-1.24c0.7,-0.21 1.45,-0.4 2.19,-0.57c2.49,-0.64 5,-1.15 7.42,-1.86c2.12,-0.64 4.22,-1.42 6.28,-2.26c1.52,-0.64 3.03,-1.29 4.59,-1.86c1.55,-0.57 3.18,-1.05 4.73,-1.66c0.64,-0.24 1.28,-0.51 1.89,-0.78c0.1,-0.06 0.13,-0.15 0.1,-0.24c-0.03,-0.09 -0.13,-0.15 -0.24,-0.13c-0.3,0.03 -0.61,0.09 -0.88,0.13c-1.31,0.21 -2.63,0.54 -3.95,0.84c-0.1,0.03 -0.21,0.06 -0.3,0.06l-0.27,-0.78c0.1,-0.03 0.21,-0.06 0.3,-0.09c0.48,-0.13 0.98,-0.27 1.45,-0.43c0.1,-0.03 0.17,-0.13 0.13,-0.21c-0.03,-0.09 -0.1,-0.15 -0.21,-0.15c-0.74,-0.03 -1.48,-0.03 -2.22,0.03l-0.13,-0.84c1.12,-0.13 2.22,-0.4 3.34,-0.48c1.31,-0.09 2.67,0.15 3.98,0.06c0.81,-0.06 1.58,-0.24 2.4,-0.4c1.45,-0.36 3.03,-0.57 4.36,-1.21l-0.02,-0.01z" id="svg_3"/>
     <path d="m118.5,136.01c0.13,0.3 0.24,0.64 0.21,0.88c-0.07,0.27 -0.34,0.43 -0.54,0.64c-0.57,0.51 -0.88,1.15 -1.12,1.84c-0.27,0.75 -0.51,1.56 -0.64,2.29c-0.07,0.3 -0.1,0.6 -0.13,0.99c-0.03,0.54 0,1.29 -0.13,1.39c-0.13,0.13 -0.54,-0.94 -0.78,-1.72c-0.34,-1.11 -0.4,-1.75 -0.85,-2.44c-0.24,-0.36 -0.57,-0.75 -0.67,-1.18c-0.1,-0.48 0.1,-1.02 0.43,-1.45c0.24,-0.27 0.51,-0.51 0.61,-0.81c0.17,-0.45 -0.1,-1.05 -0.4,-1.51c-0.27,-0.4 -0.64,-0.67 -0.94,-0.94c-0.27,-0.21 -0.48,-0.45 -0.85,-0.48c-0.34,-0.03 -0.74,0.15 -1.12,0.33c-0.54,0.27 -0.91,0.6 -1.28,0.97c-0.37,0.36 -0.7,0.78 -0.85,1.27c-0.1,0.43 -0.03,0.84 -0.03,1.27c0,0.57 -0.21,1.08 -0.21,1.84c0,0.33 0.03,0.72 -0.13,0.81c-0.17,0.13 -0.54,-0.06 -0.88,-0.09c-0.51,-0.06 -0.91,0.18 -1.28,0.45c-0.51,0.4 -0.91,0.84 -1.18,1.35c-0.24,0.43 -0.43,0.91 -0.61,1.39c-0.07,0.15 -0.1,0.33 -0.17,0.48c-0.03,0.09 -0.13,0.15 -0.24,0.15c-0.1,0 -0.21,-0.09 -0.21,-0.18c-0.03,-0.48 -0.03,-0.97 -0.03,-1.48c-0.03,-1.45 0,-2.98 0.51,-4.31c0.37,-0.97 0.94,-1.81 1.69,-2.63c0.91,-0.99 2.03,-1.9 3.21,-2.63c0.54,-0.33 1.08,-0.64 1.66,-0.94c0.17,-0.09 0.37,-0.21 0.57,-0.24c0.3,-0.06 0.61,0.03 0.91,0c0.37,-0.06 0.7,-0.36 0.94,-0.67c0.24,-0.33 0.37,-0.67 0.81,-0.88c0.07,-0.03 0.17,-0.09 0.24,-0.09c0.24,0 0.1,0.48 0,0.75c-0.07,0.15 -0.1,0.27 -0.13,0.4c0,0.13 0,0.27 0.1,0.3c0.13,0.03 0.37,-0.06 0.51,-0.18c0.21,-0.18 0.17,-0.4 0.27,-0.7c0.07,-0.24 0.21,-0.57 0.3,-0.6c0.17,-0.09 0.37,0.43 0.4,0.84c0.07,0.6 -0.1,1.02 -0.13,1.48c-0.03,0.24 0,0.51 0.07,0.75c0.17,0.45 0.61,0.88 0.94,1.27c0.1,0.13 0.21,0.27 0.3,0.4c0.37,0.51 0.61,0.99 0.85,1.59l0.02,0.01z" id="svg_4"/>
     <path d="m94.58,147.78c0.13,0.54 0.27,1.32 0.13,1.35c-0.13,0.03 -0.51,-0.64 -0.78,-1.18c-0.3,-0.64 -0.43,-1.05 -0.81,-1.39c-0.27,-0.27 -0.7,-0.48 -1.15,-0.6c-0.43,-0.15 -0.88,-0.18 -1.31,-0.15c-0.3,0 -0.61,0.06 -0.81,0.24c-0.24,0.18 -0.37,0.54 -0.57,0.6c-0.24,0.09 -0.57,-0.21 -0.88,-0.43c-0.3,-0.21 -0.61,-0.36 -0.91,-0.36c-0.43,-0.03 -0.94,0.21 -1.31,0.48c-0.34,0.24 -0.57,0.48 -0.88,0.84c-0.4,0.48 -0.94,1.18 -1.12,1.15c-0.21,-0.03 0.1,-1.02 0.21,-1.75c0.1,-0.75 0,-1.29 -0.24,-1.81c-0.1,-0.27 -0.27,-0.54 -0.61,-0.75c-0.34,-0.24 -0.85,-0.45 -0.85,-0.64c0,-0.18 0.64,-0.3 1.01,-0.57c0.3,-0.21 0.43,-0.48 0.43,-0.75c0,-0.43 -0.3,-0.81 -0.64,-1.21c-0.21,-0.24 -0.43,-0.48 -0.78,-0.54c-0.27,-0.03 -0.57,0.03 -0.67,0.24c-0.1,0.21 0,0.57 -0.07,0.7c-0.1,0.15 -0.57,-0.09 -1.01,-0.21c-0.7,-0.24 -1.21,-0.15 -1.76,-0.03c-0.43,0.09 -0.94,0.21 -1.42,0.33c-0.34,0.09 -0.67,0.15 -1.01,0.24c-0.1,0.03 -0.21,0 -0.24,-0.09c-0.07,-0.09 -0.03,-0.18 0.07,-0.24c0.43,-0.33 0.91,-0.67 1.34,-0.99c0.64,-0.45 1.28,-0.91 1.99,-1.24c1.01,-0.48 2.09,-0.75 3.24,-1.15c0.4,-0.15 0.78,-0.3 1.18,-0.27c0.43,0.03 0.85,0.33 1.25,0.57c0.51,0.3 0.94,0.54 1.66,0.6c0.61,0.06 1.42,0 1.45,0.21c0.03,0.18 -0.43,0.51 -0.88,0.72c-0.43,0.24 -0.81,0.33 -1.04,0.57c-0.27,0.3 -0.3,0.81 -0.4,1.35c-0.03,0.3 -0.1,0.6 0.03,0.78c0.17,0.24 0.74,0.24 1.18,0.24c0.27,0 0.48,0 0.7,-0.03c0.27,-0.06 0.51,-0.15 0.74,-0.4c0.17,-0.18 0.37,-0.4 0.43,-0.4c0.1,0 -0.07,0.54 0.07,0.88c0.03,0.13 0.13,0.21 0.24,0.27c0.3,0.13 0.64,-0.27 1.04,-0.43c0.24,-0.09 0.43,-0.09 0.64,-0.06c0.51,0.13 0.85,0.6 1.18,1.02c0.34,0.45 0.64,0.84 0.88,1.29c0.3,0.6 0.51,1.32 0.67,1.93c0.03,0.09 0.07,0.18 0.07,0.24c0.1,0.18 0.17,0.43 0.27,0.75l0.02,0.05z" id="svg_5"/>
     <path d="m83.99,126.7c0.13,0.03 0.13,0.4 0.1,0.7c-0.07,0.3 -0.17,0.48 -0.37,0.6c-0.37,0.24 -0.91,0.3 -1.39,0.45c-0.67,0.24 -1.18,0.72 -1.69,1.21c-0.78,0.72 -1.55,1.45 -2.03,2.29c-0.17,0.3 -0.3,0.64 -0.43,0.97c-0.24,0.6 -0.43,1.24 -0.78,1.78c-0.27,0.4 -0.61,0.72 -1.01,1.05c-0.34,0.3 -0.74,0.57 -0.91,0.91c-0.34,0.64 0,1.48 0.13,2.26c0.07,0.48 0.07,0.94 0,1.35c0,0.09 -0.07,0.15 -0.17,0.18c-0.1,0.03 -0.17,0 -0.24,-0.06c-0.17,-0.18 -0.37,-0.4 -0.54,-0.6c-0.54,-0.64 -1.01,-1.32 -1.66,-1.84c-0.48,-0.4 -1.04,-0.7 -1.66,-0.94c-0.98,-0.4 -2.06,-0.64 -2.94,-1.08c-0.64,-0.33 -1.18,-0.78 -1.85,-1.21c-0.43,-0.27 -0.88,-0.51 -1.01,-0.91c-0.07,-0.24 0,-0.51 0,-0.78c0.03,-0.78 -0.4,-1.59 -0.67,-2.29c-0.3,-0.75 -0.48,-1.39 -0.74,-2.63c-0.17,-0.78 -0.4,-1.81 -0.3,-1.93c0,0 0.03,0 0.07,0c0.1,0.09 0.34,0.54 0.54,0.94c0.21,0.45 0.34,0.81 0.48,1.18c0.34,0.78 0.85,1.54 1.34,2.05c0.4,0.43 0.78,0.7 1.66,1.39c0.43,0.36 1.04,0.81 1.08,0.64c0,-0.06 -0.07,-0.24 -0.03,-0.36c0.03,-0.15 0.24,-0.24 0.37,-0.21c0.07,0.03 0.13,0.06 0.21,0.13c0.21,0.21 0.34,0.45 0.51,0.7c0.34,0.54 0.81,0.99 1.15,1.48c0.4,0.57 0.57,1.08 1.28,1.86c0.37,0.4 0.88,0.88 1.04,0.67c0.07,-0.09 0.1,-0.3 0.1,-0.48c0.03,-0.43 0.07,-0.75 0.1,-1.08c0.03,-0.57 0.1,-1.18 0,-1.84c-0.03,-0.43 -0.13,-0.88 0.1,-1.18c0.17,-0.21 0.54,-0.33 0.85,-0.48c0.34,-0.18 0.61,-0.43 0.74,-0.78c0.13,-0.33 0.13,-0.78 0.4,-0.91c0.17,-0.06 0.4,0 0.61,0c0.4,0 0.74,-0.24 1.08,-0.45c0.85,-0.6 1.69,-1.21 2.7,-1.39c0.57,-0.09 1.21,-0.03 1.76,-0.15c0.61,-0.13 1.08,-0.4 1.58,-0.97c0.13,-0.15 0.3,-0.33 0.4,-0.36c0,0.15 0.03,0.15 0.03,0.15l-0.02,-0.01z" id="svg_6"/>
     <path d="m72.54,26.39c0.03,0.09 -0.24,0.4 -0.37,0.67c-0.17,0.33 -0.17,0.64 -0.21,0.94c-0.07,0.4 -0.27,0.75 -0.37,1.15c-0.27,0.78 -0.34,1.59 -0.48,2.35c-0.1,0.48 -0.21,0.97 -0.07,1.48l-0.54,0.06c-0.03,-0.18 -0.13,-0.36 -0.24,-0.57c-0.07,-0.21 -0.17,-0.45 -0.24,-0.48c-0.07,-0.03 -0.1,0.33 -0.1,0.67c0.03,0.36 0.1,0.64 -0.1,0.67c-0.1,0 -0.24,-0.06 -0.34,-0.13c-0.24,-0.21 -0.07,-0.57 -0.3,-0.88c-0.07,-0.06 -0.13,-0.15 -0.21,-0.15c-0.1,-0.03 -0.07,0.15 -0.03,0.36l-0.91,0.09c-0.07,-0.18 -0.13,-0.4 -0.24,-0.57c-0.34,-0.78 -0.51,-1.54 -0.85,-2.29c-0.43,-0.84 -1.12,-1.72 -1.62,-2.42c-0.3,-0.4 -0.54,-0.72 -1.01,-1.35c-0.34,-0.45 -0.81,-1.08 -0.48,-1.11c0.07,0 0.17,0 0.24,0.03c0.13,0.06 0.27,0.13 0.37,0.21c0.37,0.3 0.67,0.67 0.94,0.97c0.4,0.48 0.64,0.88 1.25,1.66c0.37,0.51 0.85,1.18 0.98,0.94c0.03,-0.09 0.03,-0.24 0,-0.43c-0.07,-0.45 -0.34,-0.78 -0.54,-1.11c-0.3,-0.45 -0.54,-0.88 -0.81,-1.48c-0.21,-0.45 -0.4,-1.02 -0.3,-1.15c0.1,-0.15 0.64,0.4 1.04,1.15c0.34,0.67 0.54,1.51 0.7,1.18c0.1,-0.15 0.17,-0.6 0.27,-0.67c0.1,-0.06 0.27,0.4 0.4,0.67c0.13,0.24 0.24,0.4 0.24,0.64c0,0.18 -0.07,0.43 0.07,0.48c0.07,0.03 0.24,0.03 0.27,-0.03c0.1,-0.06 0.07,-0.21 0.03,-0.33c-0.03,-0.3 -0.03,-0.54 0,-0.81c0,-0.24 0.03,-0.48 0.17,-0.75c0.13,-0.27 0.43,-0.57 0.64,-0.54c0.21,0.06 0.27,0.6 0.24,0.97c-0.03,0.3 -0.1,0.48 -0.24,0.81c-0.17,0.36 -0.4,0.91 -0.1,0.94c0.07,0 0.17,0 0.24,-0.06c0.1,-0.06 0.1,-0.18 0.13,-0.33c0.07,-0.18 0.21,-0.36 0.24,-0.36c0.07,0 -0.21,0.67 -0.03,0.72c0.07,0.03 0.17,-0.03 0.27,-0.09c0.3,-0.24 0.21,-0.67 0.34,-0.94c0.07,-0.18 0.27,-0.33 0.51,-0.45c0.48,-0.18 1.08,-0.4 1.12,-0.27l0.02,-0.02z" id="svg_7"/>
     <path d="m68.74,35.23c0.34,0.03 0.74,0.15 0.7,0.3c-0.03,0.09 -0.27,0.18 -0.43,0.21c-0.24,0.06 -0.4,0 -0.67,0c-0.21,0 -0.4,0.06 -0.48,0.09c-0.1,0.09 0.3,0.24 0.67,0.48c0.54,0.4 0.94,1.05 0.64,1.05c-0.1,0 -0.24,-0.06 -0.34,-0.13c-0.4,-0.21 -0.64,-0.51 -0.88,-0.81c-0.21,-0.24 -0.4,-0.51 -0.78,-0.64c-0.13,-0.03 -0.27,-0.06 -0.34,-0.06c-0.21,0.06 0.24,0.51 0.57,0.81c0.34,0.33 0.54,0.54 0.74,0.75c0.21,0.21 0.4,0.45 0.61,0.78c0.13,0.21 0.27,0.48 0.24,0.54c-0.07,0.13 -0.61,-0.36 -0.98,-0.7c-0.34,-0.33 -0.57,-0.54 -0.81,-0.78c-0.21,-0.21 -0.43,-0.45 -0.7,-0.6c-0.43,-0.24 -0.98,-0.21 -1.55,-0.3c-0.81,-0.15 -1.66,-0.51 -2.36,-0.84c-0.78,-0.33 -1.34,-0.64 -2.3,-1.21c-0.67,-0.43 -1.48,-0.97 -1.66,-0.84c-0.21,0.13 0.4,1.08 0.85,1.72c0.27,0.4 0.51,0.67 0.78,0.91c0.4,0.3 0.94,0.54 1.34,0.97c0.17,0.15 0.3,0.33 0.43,0.45c0.27,0.18 0.57,0.24 0.85,0.33c0.51,0.13 0.94,0.24 1.48,0.33c0.48,0.06 1.01,0.09 1.48,0.13c0.43,0.03 0.81,0.06 1.42,0.27c0.4,0.15 0.91,0.4 0.81,0.54c-0.07,0.09 -0.3,0.15 -0.51,0.18c-0.61,0.09 -1.04,0 -1.48,-0.03c-0.24,-0.03 -0.51,-0.03 -0.74,-0.03c-0.07,0 -0.13,0.06 -0.17,0.13c-0.03,0.06 0.03,0.15 0.1,0.15c0.48,0.18 0.91,0.43 1.28,0.72c0.21,0.18 0.37,0.36 0.54,0.57c0.4,0.43 0.88,0.78 1.34,1.15l-0.81,0.15c-0.07,-0.06 -0.17,-0.15 -0.24,-0.21c-0.24,-0.18 -0.48,-0.4 -0.74,-0.45c-0.43,-0.09 -0.88,0.21 -1.31,0.51c-0.61,0.4 -1.18,0.75 -1.55,1.24c-0.27,0.36 -0.43,0.78 -0.94,1.08c-0.24,0.15 -0.57,0.27 -0.7,0.24c-0.24,-0.06 0.3,-0.7 0.7,-1.15c0.61,-0.7 0.91,-1.05 1.45,-1.42c0.34,-0.24 0.74,-0.45 1.08,-0.75c0.03,-0.03 0.07,-0.03 0.07,-0.06c0.07,-0.06 0.1,-0.15 0.07,-0.21c0,-0.09 -0.07,-0.15 -0.17,-0.18c-0.88,-0.36 -1.76,-0.75 -2.6,-1.18c-1.25,-0.64 -2.46,-1.39 -3.61,-1.96c-0.64,-0.33 -1.25,-0.6 -1.99,-1.11c-0.27,-0.18 -0.51,-0.36 -0.67,-0.36c-0.13,0 -0.13,0.09 -0.13,0.3l-0.54,0.06c-0.03,-0.21 -0.07,-0.43 -0.21,-0.6c-0.21,-0.24 -0.54,-0.43 -0.61,-0.67c0,-0.03 0,-0.06 0,-0.09c0,-0.09 0.07,-0.18 0.1,-0.24c0.17,-0.18 0.51,-0.15 0.81,-0.06c0.27,0.09 0.54,0.3 0.7,0.21c0.13,-0.06 0.21,-0.33 0.21,-0.54c0,-0.36 -0.17,-0.64 -0.34,-0.91c-0.24,-0.4 -0.54,-0.75 -0.78,-1.18c-0.34,-0.54 -0.67,-1.15 -0.57,-1.75c0.07,-0.43 0.3,-0.84 0.57,-1.24c0.3,-0.45 0.64,-0.88 0.94,-1.29c0.43,-0.6 0.85,-1.18 1.58,-1.81c0.43,-0.36 0.94,-0.75 1.12,-0.72c0.24,0.06 -0.3,0.99 -0.74,1.72c-0.48,0.78 -0.85,1.29 -0.78,1.9c0.03,0.27 0.1,0.54 0.24,0.78c0.21,0.36 0.51,0.67 0.85,0.91c0.61,0.43 1.34,0.67 2.09,0.91c0.81,0.27 1.62,0.54 2.49,0.75c0.91,0.18 1.92,0.3 2.7,0.7c0.51,0.27 0.91,0.64 1.31,0.48c0.21,-0.06 0.4,-0.27 0.51,-0.48c0.07,-0.18 0.03,-0.4 0,-0.57l0.91,-0.09c0.03,0.09 0.07,0.21 0.07,0.33c0.1,0.4 0.07,0.6 0.17,0.84c0.03,0.09 0.07,0.21 0.07,0.3c0,0.24 -0.27,0.48 -0.61,0.54c-0.3,0.06 -0.64,-0.03 -0.78,0.13c-0.1,0.09 -0.1,0.24 -0.07,0.36c0.03,0.06 0.07,0.13 0.1,0.15c0.27,0.18 0.54,0.09 0.85,0.09l0.01,0.03zm-3.18,-0.72c0.07,-0.03 0.1,-0.09 0.1,-0.15c0,-0.06 -0.03,-0.13 -0.1,-0.13c-0.37,-0.13 -0.74,-0.24 -1.12,-0.33c-0.48,-0.15 -0.94,-0.27 -1.45,-0.36c-0.4,-0.09 -0.81,-0.15 -1.21,-0.21c-0.1,0 -0.21,0.03 -0.27,0.09c-0.07,0.09 -0.07,0.18 -0.03,0.24c0.1,0.15 0.17,0.3 0.3,0.43c0.4,0.45 1.08,0.75 1.72,0.84c0.27,0.03 0.54,0.03 0.81,0c0.43,-0.03 0.85,-0.21 1.25,-0.43z" id="svg_8"/>
     <path d="m68.36,146.15c0.03,0.15 -0.03,0.36 -0.13,0.4c-0.1,0.03 -0.24,-0.09 -0.34,-0.15c-0.13,-0.09 -0.21,-0.15 -0.3,-0.21c-0.43,-0.21 -1.15,-0.13 -1.76,-0.06c-0.85,0.09 -1.55,0.18 -2.3,0.4c-0.81,0.24 -1.66,0.6 -2.36,1.02c-0.4,0.21 -0.74,0.45 -1.18,0.6c-0.24,0.09 -0.48,0.13 -0.74,0.15c-0.24,0.03 -0.48,0.03 -0.67,-0.03c-0.27,-0.13 -0.43,-0.4 -0.67,-0.57c-0.34,-0.27 -0.81,-0.33 -1.28,-0.36c-1.04,-0.06 -2.12,0.03 -3.07,0.24c-0.61,0.13 -1.15,0.3 -1.76,0.51c-0.3,0.13 -0.64,0.24 -0.88,0.45c-0.17,0.18 -0.27,0.4 -0.48,0.57c-0.1,0.09 -0.17,0.15 -0.27,0.21c-0.1,0.06 -0.17,0.03 -0.27,-0.03c-0.07,-0.06 -0.1,-0.15 -0.07,-0.24c0.13,-0.33 0.27,-0.67 0.37,-0.99c0.21,-0.81 0.17,-1.66 0.1,-2.53c-0.07,-0.72 -0.17,-1.42 -0.07,-2.11c0.17,-1.08 0.81,-2.05 1.34,-3.1c0.4,-0.81 0.74,-1.69 0.85,-2.53c0.1,-0.99 -0.07,-1.96 -0.13,-3.04c-0.03,-0.51 -0.03,-1.05 -0.3,-1.45c-0.1,-0.15 -0.27,-0.3 -0.34,-0.51c-0.1,-0.24 -0.07,-0.6 0.07,-0.7c0.17,-0.15 0.54,0.36 0.81,0.81c0.78,1.29 0.85,2.11 0.94,3.04c0.07,0.72 0.13,1.54 0.03,2.42c-0.07,0.45 -0.17,0.91 0,1.27c0.17,0.36 0.64,0.57 0.94,0.94c0.34,0.43 0.48,0.99 0.24,1.39c-0.1,0.18 -0.3,0.33 -0.48,0.48c-0.1,0.09 -0.21,0.21 -0.27,0.36c-0.07,0.18 -0.07,0.43 0,0.45c0.13,0.09 0.61,-0.43 0.81,-0.36c0.1,0.03 0.1,0.3 0.07,0.54c-0.03,0.15 -0.07,0.3 0,0.36c0.07,0.03 0.21,0.03 0.27,-0.06c0.13,-0.09 0.13,-0.33 0.21,-0.36c0.07,-0.06 0.27,0.24 0.3,0.48c0.03,0.24 -0.07,0.4 -0.27,0.54c-0.1,0.09 -0.24,0.15 -0.21,0.24c0,0.03 0.07,0.09 0.13,0.13c0.4,0.18 0.78,0.03 1.18,0.03c0.4,-0.03 0.78,0.09 1.18,0.09c0.48,0 1.01,-0.09 1.31,-0.43c0.13,-0.15 0.24,-0.33 0.24,-0.54c0,-0.21 -0.1,-0.45 0,-0.57c0.1,-0.13 0.48,-0.15 0.78,-0.15c0.57,0 1.01,0 1.45,0.03c0.13,0 0.27,0.03 0.4,0.03c0.88,0.09 1.85,0.24 2.73,0.54c0.64,0.21 1.21,0.51 1.76,0.91c0.24,0.18 0.48,0.4 0.74,0.51c0.37,0.18 0.81,0.24 1.12,0.48c0.1,0.21 0.21,0.33 0.21,0.48l0.02,0.01z" id="svg_9"/>
     <path d="m59.08,135.44c0.27,0.45 0.51,1.15 0.3,1.15c-0.1,0 -0.37,-0.18 -0.54,-0.4c-0.3,-0.36 -0.37,-0.72 -0.61,-1.02c-0.13,-0.15 -0.3,-0.24 -0.43,-0.4c-0.43,-0.33 -0.78,-0.75 -1.18,-1.05c-0.54,-0.4 -1.18,-0.67 -1.76,-1.02c-0.64,-0.4 -1.15,-0.91 -1.69,-1.42c-0.43,-0.43 -0.88,-0.81 -1.34,-1.18c-0.57,-0.43 -1.21,-0.72 -1.82,-1.11c-0.34,-0.21 -0.64,-0.4 -1.04,-0.48c-0.13,-0.03 -0.3,-0.03 -0.43,0.03c-0.24,0.13 -0.37,0.48 -0.57,0.51c-0.17,0.03 -0.37,-0.15 -0.57,-0.24c-0.27,-0.09 -0.54,-0.06 -0.78,0.06c-0.27,0.15 -0.43,0.48 -0.4,0.75c0.03,0.18 0.13,0.33 0.24,0.51c0.13,0.24 0.21,0.51 0.21,0.75c0,0.51 -0.17,1.02 -0.48,1.42c-0.27,0.36 -0.67,0.67 -1.01,0.99c-0.43,0.48 -0.7,1.08 -0.85,1.69c-0.17,0.72 -0.13,1.48 -0.1,2.2c0.07,0.99 0.1,1.99 0.27,2.98c0.1,0.57 0.24,1.11 0.34,1.69c0.03,0.24 0.07,0.48 0.07,0.72c0,0.13 -0.07,0.24 -0.21,0.3c-0.13,0.06 -0.27,0.03 -0.37,-0.09c-0.3,-0.3 -0.61,-0.64 -0.88,-0.97c-0.61,-0.81 -1.01,-1.72 -1.39,-2.69c-0.54,-1.42 -0.98,-2.96 -1.04,-4.16c-0.03,-0.75 0.1,-1.39 0.4,-2.66c0.13,-0.51 0.27,-1.15 0.37,-1.05c0.07,0.06 0.1,0.3 0.1,0.57c0,0.13 0,0.24 0,0.33c0.03,0.36 0.03,0.67 0.21,0.64c0.1,-0.03 0.3,-0.24 0.43,-0.45c0.27,-0.48 0.17,-0.91 0.17,-1.39c0,-0.33 0,-0.7 0.24,-0.91c0.1,-0.09 0.27,-0.15 0.4,-0.24c0.67,-0.33 1.12,-0.84 1.55,-1.48c0.24,-0.36 0.51,-0.72 0.51,-1.05c0,-0.43 -0.43,-0.75 -0.57,-1.35c-0.1,-0.4 -0.1,-0.88 0.13,-0.88c0.13,0 0.34,0.15 0.43,0.33c0.13,0.18 0.13,0.43 0.27,0.51s0.37,0 0.61,-0.06c0.24,-0.03 0.43,-0.06 0.51,-0.15c0.03,-0.09 -0.03,-0.24 -0.13,-0.43c-0.13,-0.21 -0.27,-0.45 -0.13,-0.57c0.1,-0.09 0.3,-0.13 0.48,-0.06c0.17,0.06 0.21,0.27 0.3,0.45c0.13,0.27 0.37,0.48 0.61,0.67c0.3,0.21 0.67,0.36 0.94,0.67c0.17,0.18 0.3,0.4 0.51,0.43c0.13,0.03 0.34,-0.06 0.48,-0.15c0.48,-0.21 0.85,-0.3 1.31,-0.43c0.43,-0.13 0.94,-0.24 1.34,-0.09c0.34,0.13 0.61,0.43 0.85,0.72c0.34,0.4 0.7,0.75 1.12,1.02c0.48,0.36 1.04,0.6 1.69,0.88c0.61,0.24 1.28,0.48 1.52,0.94c0.13,0.27 0.13,0.6 0.13,0.91c0.07,0.72 0.27,1.35 0.37,2.08c0.1,0.64 0.13,1.32 0.37,1.84c0.13,0.27 0.34,0.48 0.57,0.88l-0.02,0.01z" id="svg_10"/>
     <path d="m53.89,6.71l0.78,0.15c-0.17,0.7 -0.27,1.39 -0.37,2.08c-0.17,1.29 -0.3,2.59 -0.4,3.89c-0.13,1.72 -0.3,3.44 -0.27,5.13c0.03,2.05 0.3,4.1 0.34,6.15c0.03,2.32 -0.24,4.62 -0.21,6.94c0.03,1.42 0.13,2.83 0.37,4.22c0.03,0.13 0.03,0.24 0.07,0.4l-0.88,0.13c-0.07,-0.33 -0.17,-0.64 -0.3,-0.94c-0.27,-0.6 -0.74,-1.15 -0.94,-1.75c-0.27,-0.81 -0.13,-1.72 -0.03,-2.59c0.17,-1.56 0.17,-2.98 0.24,-4.46c0.07,-1.56 0.17,-3.2 0.24,-4.82c0.07,-1.72 0.03,-3.41 0.1,-5.13c0.07,-1.54 0.21,-3.07 0.4,-4.62c0.27,-1.63 0.54,-3.2 0.88,-4.76l-0.02,0z" id="svg_11"/>
     <path d="m47.52,69.93l0.27,0.78c-0.74,0.18 -1.45,0.33 -2.12,0.64c-0.74,0.3 -1.39,0.7 -2.09,1.05c-1.28,0.6 -2.67,1.02 -4.09,1.35c-1.28,0.33 -2.57,0.6 -3.88,0.72c-0.61,0.06 -1.18,0.06 -1.76,0.21c-0.3,0.06 -0.61,0.18 -0.88,0.3l-0.4,-0.78c0.54,-0.21 1.08,-0.43 1.66,-0.6c1.96,-0.64 3.98,-1.02 5.94,-1.59c1.58,-0.45 3.13,-1.02 4.73,-1.45c0.88,-0.21 1.76,-0.4 2.63,-0.64l0,0.01z" id="svg_12"/>
     <path d="m46.88,68.24l0.13,0.84c-1.55,0.13 -3.1,0.51 -4.66,0.72c-1.08,0.15 -2.19,0.21 -3.27,0.3c-0.48,0.03 -0.94,0.09 -1.39,0.18c-0.78,0.21 -1.45,0.64 -2.22,0.88c-0.61,0.18 -1.21,0.24 -1.82,0.43c-0.85,0.24 -1.55,0.75 -2.33,1.18c-1.28,0.72 -2.7,1.21 -4.09,1.69c-1.76,0.57 -3.48,1.11 -5.3,1.63c-1.39,0.4 -2.8,0.75 -4.09,0.99c-0.64,0.13 -1.21,0.21 -1.85,0.36l-0.13,-0.43c0.27,-0.09 0.54,-0.15 0.81,-0.24c0.81,-0.27 1.69,-0.57 2.57,-0.84c0.61,-0.21 1.25,-0.43 1.85,-0.64c1.92,-0.67 3.78,-1.29 5.57,-2.11c1.08,-0.48 2.12,-1.05 3.21,-1.56c0.78,-0.36 1.55,-0.72 2.36,-1.05c0.1,-0.03 0.13,-0.15 0.1,-0.24c-0.03,-0.09 -0.13,-0.15 -0.24,-0.13c-0.03,0 -0.1,0 -0.13,0.03l-0.13,-0.78c0.37,-0.03 0.7,-0.09 1.04,-0.13c1.45,-0.15 2.33,-0.15 3.31,-0.15c0.13,0 0.24,0 0.37,0c1.08,0 2.36,-0.09 3.58,-0.27c0.88,-0.15 1.72,-0.33 2.57,-0.45c1.31,-0.24 2.76,-0.09 4.18,-0.21l0,0z" id="svg_13"/>
     <path d="m39.18,127.16c0.03,0.51 -0.13,0.99 -0.24,1.45c-0.07,0.27 -0.1,0.54 -0.27,0.75c-0.34,0.4 -1.12,0.54 -1.79,0.72c-0.51,0.13 -0.94,0.24 -1.39,0.36c-0.4,0.13 -0.85,0.27 -1.31,0.43c-0.34,0.13 -0.74,0.24 -0.88,0.51c-0.1,0.18 -0.1,0.43 -0.13,0.67c-0.03,0.27 -0.07,0.54 -0.21,0.72c-0.21,0.24 -0.64,0.36 -1.01,0.48c-0.61,0.21 -1.15,0.48 -1.69,0.72c-0.61,0.27 -1.21,0.48 -1.82,0.91c-0.3,0.18 -0.61,0.43 -0.61,0.72c0,0.27 0.24,0.6 0.07,0.81c-0.1,0.09 -0.27,0.18 -0.4,0.15c-0.21,-0.03 -0.3,-0.27 -0.34,-0.48c-0.1,-0.4 0,-0.72 0.1,-1.05c0.13,-0.36 0.3,-0.75 0.51,-1.11c0.24,-0.45 0.43,-0.94 0.48,-1.42c0.03,-0.4 -0.03,-0.81 -0.24,-1.21c-0.24,-0.45 -0.64,-0.84 -1.08,-1.15c-0.64,-0.45 -1.39,-0.7 -2.19,-0.99c-0.21,-0.09 -0.4,-0.15 -0.51,-0.27c-0.27,-0.3 0,-0.94 -0.21,-1.29c-0.13,-0.24 -0.48,-0.4 -0.81,-0.54c-0.85,-0.33 -1.66,-0.57 -2.49,-0.64c-0.98,-0.09 -2.03,0.03 -3,0.33c-0.43,0.13 -0.88,0.3 -1.28,0.45c-0.1,0.03 -0.21,0.03 -0.27,-0.06c-0.07,-0.06 -0.07,-0.15 0,-0.24c0.1,-0.13 0.17,-0.21 0.27,-0.3c0.37,-0.36 0.81,-0.67 1.28,-0.94c0.81,-0.45 1.76,-0.78 2.6,-0.99c0.85,-0.21 1.62,-0.3 2.8,-0.06c0.48,0.09 1.01,0.24 1.12,0.03c0.07,-0.15 -0.07,-0.43 -0.27,-0.67c-0.21,-0.24 -0.48,-0.4 -0.48,-0.7c-0.03,-0.15 0.03,-0.4 0.13,-0.45c0.17,-0.13 0.51,0.18 0.74,0.43c0.34,0.33 0.61,0.54 0.85,0.78c0.43,0.43 0.91,0.94 1.48,1.27c0.51,0.3 1.12,0.48 1.48,0.84c0.34,0.33 0.54,0.84 0.7,1.27c0.3,0.75 0.61,1.27 0.57,2.42c-0.03,0.48 -0.1,1.05 0.1,1.02c0.1,-0.03 0.27,-0.18 0.4,-0.36c0.37,-0.4 0.64,-0.67 0.91,-0.97c0.3,-0.36 0.61,-0.75 0.91,-1.27c0.1,-0.18 0.24,-0.36 0.4,-0.4c0.13,-0.03 0.34,0.09 0.4,0.24c0.13,0.24 0,0.6 0.07,0.67c0.07,0.09 0.37,-0.27 0.64,-0.54c0.48,-0.54 0.74,-0.84 1.01,-1.21c0.37,-0.48 0.81,-1.08 1.01,-1.66c0.17,-0.51 0.1,-0.97 -0.07,-1.66c-0.07,-0.3 -0.17,-0.6 -0.13,-0.7c0.07,-0.15 0.57,0.6 0.91,1.02c0.13,0.18 0.27,0.3 0.4,0.43c0.27,0.27 0.61,0.57 0.91,0.97c0.21,0.3 0.37,0.67 0.67,0.67c0.17,0 0.34,-0.09 0.51,-0.06c0.17,0.03 0.3,0.15 0.4,0.27c0.13,0.24 0.21,0.57 0.24,0.88l0.01,0.01z" id="svg_14"/>
     <path d="m14.99,116.15c0.07,0.3 0.07,0.64 0.03,0.94c-0.13,0.81 -0.54,1.56 -0.85,2.35c-0.27,0.72 -0.51,1.48 -0.57,2.2c-0.07,0.91 0.07,1.78 -0.07,2.77c-0.03,0.33 -0.1,0.67 0.03,0.91c0.1,0.18 0.3,0.3 0.48,0.48c0.13,0.18 0.24,0.4 0.21,0.6c-0.03,0.13 -0.1,0.27 -0.17,0.36c-0.24,0.36 -0.57,0.67 -0.91,0.99c-0.4,0.36 -0.81,0.75 -0.91,1.21c-0.07,0.4 0.1,0.84 0.24,1.24c0.1,0.27 0.17,0.51 0.3,0.81c0.1,0.27 0.24,0.54 0.07,0.78c-0.07,0.09 -0.21,0.18 -0.34,0.18c-0.1,0 -0.17,-0.09 -0.24,-0.18c-0.07,-0.15 -0.07,-0.33 -0.17,-0.43c-0.1,-0.09 -0.37,0 -0.57,0.06c-0.78,0.15 -1.34,-0.13 -1.96,-0.3c-0.64,-0.21 -1.28,-0.24 -1.99,-0.81c-0.3,-0.24 -0.61,-0.6 -0.74,-0.51c-0.13,0.06 -0.1,0.48 -0.1,0.78c0.03,0.4 0.03,0.64 -0.07,0.99c-0.13,0.4 -0.4,0.94 -0.54,0.94c-0.13,-0.03 -0.13,-0.54 -0.21,-0.97c-0.1,-0.81 -0.34,-1.27 -0.61,-1.81c-0.17,-0.36 -0.34,-0.72 -0.54,-1.11c-0.17,-0.33 -0.34,-0.67 -0.57,-0.99c-0.37,-0.54 -0.78,-1.08 -1.21,-1.48c-0.57,-0.51 -1.15,-0.81 -2.06,-1.42c-0.54,-0.36 -1.18,-0.84 -0.88,-1.08c0.1,-0.09 0.34,-0.15 0.54,-0.13c0.24,0.03 0.4,0.15 0.57,0.24c0.3,0.18 0.64,0.27 0.98,0.4c0.54,0.18 1.12,0.4 1.69,0.45c0.3,0.03 0.61,0.06 0.94,0c0.27,-0.03 0.54,-0.13 0.7,-0.03c0.21,0.09 0.27,0.33 0.4,0.57c0.21,0.33 0.43,0.6 0.67,0.88c0.4,0.48 0.7,1.08 1.15,1.48c0.3,0.3 0.67,0.48 1.04,0.88c0.21,0.24 0.43,0.54 0.67,0.48c0.1,-0.03 0.17,-0.13 0.21,-0.21c0.07,-0.15 -0.03,-0.33 -0.13,-0.43c-0.1,-0.06 -0.24,-0.06 -0.3,-0.13c-0.07,-0.06 -0.07,-0.15 -0.03,-0.21c0.03,-0.03 0.1,-0.06 0.17,-0.09c0.24,-0.03 0.61,0.03 0.67,-0.06c0.07,-0.09 -0.03,-0.27 0,-0.4c0,-0.13 0.1,-0.18 0.21,-0.21c0.21,-0.06 0.37,0.09 0.43,0.36c0.07,0.18 0.07,0.4 0.24,0.43c0.07,0.03 0.17,0 0.27,-0.06c0.24,-0.13 0.21,-0.4 0.24,-0.67c0,-0.48 0.1,-0.91 0.07,-1.32c-0.03,-0.72 -0.3,-1.45 -0.61,-2.2c-0.21,-0.57 -0.4,-1.18 -0.24,-1.69c0.1,-0.36 0.4,-0.7 0.67,-0.99c0.4,-0.51 0.67,-1.02 1.01,-1.54c0.54,-0.78 1.18,-1.54 1.62,-2.39c0.21,-0.43 0.37,-0.91 0.51,-1.35c0.03,-0.09 0.1,-0.15 0.21,-0.15c0.1,0 0.17,0.03 0.21,0.13c0.07,0.21 0.1,0.33 0.13,0.45l-0.01,0.01z" id="svg_15"/>
    </g>
</svg>